<svg width="520" height="381" viewBox="0 0 520 381" fill="none" xmlns="http://www.w3.org/2000/svg">
<path d="M88.3757 325.537C88.3757 325.537 88.0352 357.536 105.375 379.661" stroke="white" stroke-width="2" stroke-miterlimit="10"/>
<path d="M113.273 281.878C113.273 281.878 127.644 303.241 147.703 295.752C147.703 295.752 153.142 308.005 164.021 305.625C174.9 303.244 166.265 285.144 166.265 285.144" stroke="white" stroke-width="2" stroke-miterlimit="10"/>
<path d="M430.113 189.714C430.11 189.684 430.11 189.654 430.11 189.624C428.171 121.058 421.092 26.1128 407.814 20.1043C388.257 11.2546 71.3464 -1.00156 57.2891 15.678C48.5309 26.0709 44.2802 110.994 44.9792 179.961V179.964" stroke="#4DFFA5" stroke-width="2" stroke-miterlimit="10"/>
<path d="M346.154 267.612H346.151C346.127 267.615 346.106 267.615 346.079 267.612C264.039 267.175 144.008 258.101 93.448 254.276" stroke="#4DFFA5" stroke-width="2" stroke-miterlimit="10"/>
<path d="M77.7656 1.38213C330.191 -2.02137 445.404 18.4026 455.796 19.4225C466.185 20.4453 468.936 88.5273 468.019 112.355C467.601 123.22 464.641 132.321 460.701 139.033C456.005 147.039 449.92 151.657 445.099 151.842C436.236 152.183 427.374 128.693 450.598 125.972C455.169 125.436 458.424 130.485 460.701 139.033C465.372 156.582 465.916 188.883 465.208 217.881C465.208 217.881 465.208 217.881 465.208 217.884C465.205 217.887 465.205 217.887 465.205 217.89C465.205 217.893 465.205 217.896 465.208 217.899" stroke="#4DFFA5" stroke-width="2" stroke-miterlimit="10"/>
<path d="M351.839 285.736C351.791 285.736 351.743 285.739 351.692 285.739C269.227 287.746 160.622 286.609 99.228 279.943" stroke="#4DFFA5" stroke-width="2" stroke-miterlimit="10"/>
<path d="M60.7091 126.687C60.6524 73.6363 63.29 23.2656 69.8198 20.1044" stroke="#4DFFA5" stroke-width="2" stroke-miterlimit="10"/>
<path d="M39.9817 153.188C39.9817 153.188 12.0493 226.988 19.529 262.39C27.0087 297.792 55.5684 333.876 84.4657 319.577C113.366 305.281 102.484 295.067 116.765 294.047" stroke="white" stroke-width="2" stroke-miterlimit="10"/>
<path d="M23.6064 244.35C23.6064 244.35 44.3459 187.501 55.225 142.909C66.104 98.3162 83.4441 121.124 79.3637 151.417C75.2834 181.714 72.2246 186.478 71.5435 206.902C70.8624 227.326 116.422 267.833 92.283 296.428" stroke="white" stroke-width="2" stroke-miterlimit="10"/>
<path d="M1 357.876C1 357.876 13.2382 306.474 15.9594 281.968" stroke="white" stroke-width="2" stroke-miterlimit="10"/>
<path d="M395.797 106.239C372.273 110.5 364.797 84.0501 364.797 84.0501C382.782 80.9067 391.041 99.5662 417.241 110.838C419.965 112.011 422.89 111.789 425.949 110.465" stroke="white" stroke-width="2" stroke-miterlimit="10"/>
<path d="M421.193 65.1065C418.807 65.0766 416.375 64.9809 413.914 64.8254C403.187 64.1554 391.917 62.3939 381.477 60.0132C352.122 53.3258 329.361 41.7785 343.866 36.0122C358.04 30.3776 369.313 44.3146 381.477 60.0132C391.257 72.6343 401.61 86.3948 414.505 92.0444C418.926 93.9824 421.997 93.2318 424.016 90.7046C424.067 90.6417 424.121 90.573 424.171 90.5042" stroke="white" stroke-width="2" stroke-miterlimit="10"/>
<path d="M424.237 91.1711C424.162 91.0156 424.088 90.8601 424.016 90.7046C419.912 82.0313 416.339 73.2085 413.914 64.8254C411.351 55.9787 410.063 47.6255 410.777 40.4596C411.437 33.835 412.844 31.4304 414.577 31.9179" stroke="white" stroke-width="2" stroke-miterlimit="10"/>
<path d="M386.576 43.6297C386.576 43.6297 402.506 39.1795 399.071 21.2647C399.071 21.2647 381.513 29.8452 386.576 43.6297Z" stroke="white" stroke-width="2" stroke-miterlimit="10"/>
<path d="M337.232 71.5785C337.232 71.5785 349.622 74.4915 357.95 62.6421C357.95 62.6421 347.576 55.8052 337.232 71.5785Z" stroke="white" stroke-width="2" stroke-miterlimit="10"/>
<path d="M349.377 28.6729C349.377 28.6729 341.82 25.5236 343.209 16.5543C343.209 16.5543 350.766 19.7035 349.377 28.6729Z" stroke="white" stroke-width="2" stroke-miterlimit="10"/>
<path d="M409.152 114.5C405.5 116 404.233 118.288 404.708 119.775C405.182 121.261 393.363 128.328 400.791 142.34C400.791 142.34 400.221 148.752 402.491 148.681C404.761 148.609 407.196 142.911 407.196 142.911C407.196 142.911 415.808 140.151 416.889 132.264C417.967 124.378 409.152 119.335 409.152 119.335C409.152 119.335 409.496 115.292 403.558 117.194" stroke="white" stroke-width="2" stroke-miterlimit="10"/>
<path d="M243.765 110.067C243.765 110.067 245.166 132.441 258.88 145.011C258.88 145.011 283.446 139.012 284.644 115.017C285.842 91.0216 297.524 115.017 287.64 121.614C277.752 128.212 251.093 92.2209 254.089 84.1218C257.085 76.0228 257.109 95.2565 241.803 107.22C215.573 127.721 233.827 142.669 248.392 142.762C255.355 142.807 206.752 82.3244 252.885 74.2254C252.885 74.2254 240.602 68.5249 251.388 59.8278C262.172 51.1306 291.532 56.2299 282.245 66.1263C272.958 76.0228 260.675 52.0278 285.54 77.2251C310.405 102.422 335.619 150.239 291.574 162.896C245.671 176.088 245.578 202.141 245.578 202.141C245.578 202.141 291.801 177.186 276.85 145.911" stroke="white" stroke-width="2" stroke-miterlimit="10"/>
<path d="M358.407 227.957C351.937 232.455 250.821 242.54 254.596 232.102C258.372 221.665 273.469 202.227 274.368 208.888C275.267 215.545 256.033 229.764 254.417 227.245C252.798 224.727 238.78 237.683 228.534 236.424C218.288 235.165 211.997 230.846 203.729 232.644C195.461 234.441 213.434 219.146 226.198 221.126C226.198 221.126 224.579 220.046 226.918 218.967C229.254 217.887 238.6 224.365 252.263 218.246C265.923 212.127 268.08 214.828 268.08 214.828" stroke="white" stroke-width="2" stroke-miterlimit="10"/>
<path d="M277.152 170.507C287.756 173.666 308.34 170.558 308.34 170.558C320.546 168.563 342.277 190.874 350.939 199.548" stroke="white" stroke-width="2" stroke-miterlimit="10"/>
<path d="M264.57 145.612C264.57 145.612 261.574 163.608 251.388 165.408C241.202 167.209 266.067 173.507 266.067 170.507C266.067 169.649 264.355 168.719 261.909 167.828C253.844 164.885 217.431 175.951 212.92 176.926C212.92 176.926 206.42 194.852 178.38 215.19C150.34 235.527 145.5 256 145.5 256" stroke="white" stroke-width="2" stroke-miterlimit="10"/>
<path d="M307.8 207.449C307.8 207.449 314.27 194.852 314.27 189.092C314.27 183.332 299.711 200.251 336.739 214.828C373.767 229.405 346.985 205.29 285.51 209.968" stroke="white" stroke-width="2" stroke-miterlimit="10"/>
<path d="M112.954 213.21H170.653" stroke="white" stroke-width="2" stroke-miterlimit="10"/>
<path d="M354.673 231.696C354.673 231.696 333.465 243.061 340.634 255.622C347.803 268.183 353.777 291.511 354.673 301.381C355.569 311.25 406.948 350.729 418 351.028" stroke="white" stroke-width="2" stroke-miterlimit="10"/>
<path d="M371.551 275.511C371.551 275.511 326.147 113.71 329.432 103.541C332.718 93.3723 344.667 95.1668 346.459 96.3631C348.251 97.5594 355.42 115.504 348.55 118.196C341.679 120.887 335.705 116.999 334.212 109.223C332.718 101.447 346.459 87.6898 352.732 106.831C359.005 125.972 392.759 224.667 388.876 225.266C384.936 225.873 359.005 150.496 370.356 146.01C380.691 141.925 391.564 160.067 399.032 176.217C406.341 192.023 413.37 218.088 412.175 218.088C410.98 218.088 394.253 175.02 410.98 173.525C427.708 172.03 442.644 216.592 439.955 216.891C437.267 217.19 426.322 180.924 434.578 176.516C443.54 171.731 457.579 186.984 458.774 201.04C459.969 215.097 489.242 255.472 493.424 270.127C497.606 284.782 502.386 314.092 498.801 319.475C495.217 324.858 484.463 325.756 484.463 317.381C484.463 309.007 500.593 296.446 518.516 349.682" stroke="white" stroke-width="2" stroke-miterlimit="10"/>
</svg>
