<svg width="485" height="391" viewBox="0 0 485 391" fill="none" xmlns="http://www.w3.org/2000/svg">
<path d="M92.4568 160.696C79.8801 162.331 61.6348 163.22 54.2306 160.637C52.1485 159.91 50.9218 158.908 50.9218 157.573C50.9218 153.435 61.023 152.303 72.2418 152.337C79.2621 152.359 86.7194 152.836 92.4068 153.317" stroke="white" stroke-width="2" stroke-miterlimit="10" stroke-linecap="round" stroke-linejoin="round"/>
<path d="M55.7664 159.317C55.2295 159.726 54.7175 160.166 54.2306 160.637C40.8829 173.579 47.0854 209.122 69.5323 209.122C78.5785 209.122 86.8318 207.159 93.2247 203.711" stroke="white" stroke-width="2" stroke-miterlimit="10" stroke-linecap="round" stroke-linejoin="round"/>
<path d="M127.63 240.524C127.63 240.524 167.992 238.502 198.514 236.992C201.564 236.839 204.513 236.695 207.317 236.555C220.97 235.884 231.106 235.391 231.939 235.372C234.661 235.31 258.119 254.306 258.201 257.766C258.235 259.255 246.595 260.007 232.582 260.422" stroke="white" stroke-width="2" stroke-miterlimit="10" stroke-linecap="round" stroke-linejoin="round"/>
<path d="M245.452 285.436C260.067 285 273.477 284.46 283.569 283.786" stroke="white" stroke-width="2" stroke-miterlimit="10" stroke-linecap="round" stroke-linejoin="round"/>
<path d="M287.752 266.881C269.585 251.882 239.902 230.733 234.312 230.864C226.149 231.054 109.931 235.001 111.242 238.184C112.553 241.37 125.807 268.519 138.886 266.977C144.48 266.319 162.445 264.647 181.523 263.486C184.252 263.317 187.005 263.161 189.745 263.021" stroke="white" stroke-width="2" stroke-miterlimit="10" stroke-linecap="round" stroke-linejoin="round"/>
<path d="M109.235 226.358C109.235 226.358 234.961 226.892 236.116 223.403C237.271 219.912 239.808 137.728 234.087 136.377C228.362 135.026 92.1572 130.779 92.3195 137.7C92.3569 139.276 92.3663 145.154 92.4069 153.317C92.4225 155.61 92.4381 158.088 92.4568 160.696C92.5536 173.548 92.7534 189.677 93.2247 203.712C93.8116 221.303 94.8261 235.607 96.5928 236.053C101.072 237.185 126.004 287.561 137.628 287.29C142.292 287.181 169.68 286.981 200.811 286.444" stroke="white" stroke-width="2" stroke-miterlimit="10" stroke-linecap="round" stroke-linejoin="round"/>
<path d="M189.218 261.083C187.841 261.111 186.755 261.142 186.018 261.18C183.818 261.289 182.391 262.156 181.523 263.486C178.776 267.673 181.533 276.447 182.756 280.55C183.324 282.447 189.958 282.862 198.489 282.594" stroke="white" stroke-width="2" stroke-miterlimit="10" stroke-linecap="round" stroke-linejoin="round"/>
<path d="M232.876 263.374C235.12 263.817 236.596 264.409 237.09 265.183C240.458 270.444 241.912 275.898 240.708 278.16" stroke="white" stroke-width="2" stroke-miterlimit="10" stroke-linecap="round" stroke-linejoin="round"/>
<path d="M158.29 190.432C158.29 190.432 159.897 184.968 163.035 185.964" stroke="white" stroke-miterlimit="10" stroke-linecap="round" stroke-linejoin="round"/>
<path d="M167.807 183.935C166.2 183.617 165.157 185.57 165.95 186.379C166.587 187.031 168.622 186.494 168.272 184.903C167.923 183.311 165.719 184.207 165.719 184.207" stroke="white" stroke-miterlimit="10" stroke-linecap="round" stroke-linejoin="round"/>
<path d="M158.43 192.563C158.43 192.563 159.957 195.019 161.146 194.501C162.335 193.983 167.81 188.341 169.477 187.324C171.144 186.307 168.519 182.453 166.225 183.352C163.93 184.251 163.303 185.867 163.924 185.851C164.545 185.836 164.467 190.02 159.769 190.841C155.072 191.661 160.325 195.543 160.768 195.53C161.212 195.521 164.811 193.346 164.87 190.188C164.929 187.031 165.897 186.472 166.175 186.956C166.453 187.439 166.746 192.16 167.561 193.015C168.472 193.973 169.128 196.126 166.056 197.231C165.129 197.565 162.541 195.355 162.541 195.355" stroke="white" stroke-miterlimit="10" stroke-linecap="round" stroke-linejoin="round"/>
<path d="M210.772 208.049C209.171 203.896 209.221 189.074 209.221 189.074C215.242 196.919 220.973 193.814 221.713 193.259C222.362 192.772 218.979 188.095 214.927 200.22C212.236 208.273 213.285 212.754 215.373 213.241C217.461 213.731 214.764 208.813 212.823 209.899C209.817 211.581 215.264 218.233 217.162 214.667C222.481 204.66 229.083 194.469 223.552 190.744C215.948 185.624 210.978 178.447 205.615 178.775C203.721 178.89 200.73 180.151 200.009 181.09C196.429 185.755 195.811 200.772 195.811 200.772C195.811 200.772 195.283 191.976 196.906 186.354C198.529 180.731 197.618 178.497 197.618 178.497C197.618 178.497 203.077 177.545 204.376 176.478C205.678 175.411 201.161 175.37 201.161 175.37C201.161 175.37 201.667 177.043 201.167 177.124C200.668 177.208 201.738 172.384 202.104 169.692C202.469 166.999 208.715 156.721 200.917 154.215C195.405 152.446 192.03 152.562 191.066 155.735C190.101 158.908 199.119 160.06 199.903 159.932C200.689 159.807 199.928 157.963 198.389 157.925C196.847 157.891 197.674 167.142 198.895 167.258C200.115 167.373 198.411 161.826 200.955 161.875C203.499 161.922 201.91 166.007 200.562 168.044C199.213 170.082 194.524 171.767 192.08 171.464C189.636 171.161 190.488 163.124 191.397 160.559C192.305 157.994 192.645 160.964 192.04 162.696C191.434 164.428 189.877 166.035 191.846 166.025C193.816 166.016 194.228 165.255 193.894 164.724" stroke="white" stroke-miterlimit="10" stroke-linecap="round" stroke-linejoin="round"/>
<path d="M164.495 197.346C164.495 197.346 163.993 198.825 165.497 198.791C167.002 198.757 170.105 195.103 169.359 193.867C168.613 192.632 166.737 193.571 171.419 196.254C176.101 198.937 180.397 198.766 179.207 196.931C178.018 195.096 176.042 196.398 177.993 197.103C179.944 197.808 181.077 197.209 180.191 196.12C179.304 195.031 178.012 194.847 178.274 195.306C178.536 195.764 180.147 195.671 182.182 189.308C184.42 182.31 184.149 181.421 187.938 179.58C190.869 178.154 192.065 178.303 193.597 176.547C193.597 176.547 196.126 177.489 196.248 178.026C196.248 178.026 194.609 178.456 194.665 176.166C194.696 174.843 195.012 172.65 195.012 172.65" stroke="white" stroke-miterlimit="10" stroke-linecap="round" stroke-linejoin="round"/>
<path d="M166.29 200.563C166.29 200.563 177.103 206.541 181.183 203.331C185.263 200.12 189.187 195.964 188.74 192.557C188.347 189.558 187.105 185.583 187.879 197.125C188.319 203.668 187.276 214.289 185.129 214.339C182.981 214.389 183.234 209.943 195.118 212.638C209.146 215.821 210.869 212.198 210.869 212.198" stroke="white" stroke-miterlimit="10" stroke-linecap="round" stroke-linejoin="round"/>
<path d="M115.984 198.972C112.906 200.445 102.717 208.308 107.112 208.326C111.508 208.345 170.832 206.841 170.832 206.841" stroke="white" stroke-miterlimit="10" stroke-linecap="round" stroke-linejoin="round"/>
<path d="M122.692 201.437C121.849 198.024 122.698 193.733 121.843 193.066C120.988 192.398 119.929 183.037 120.835 182.557C121.74 182.076 141.674 179.171 141.59 182.073C141.505 184.975 121.952 184.591 121.609 182.997C121.265 181.402 131.251 177.43 137.07 178.135C142.888 178.84 130.967 181.558 130.933 180.11C130.898 178.663 130.134 172.041 130.724 171.112C131.314 170.182 137.254 169.661 137.575 170.341C137.897 171.021 131.829 172.687 131.576 171.701C131.323 170.715 137.819 170.946 137.844 172.013C137.869 173.08 136.33 179.146 139.617 179.299C142.904 179.452 142.073 188.22 141.839 189.549C141.402 192.039 141.892 191.836 143.806 192.02C145.719 192.204 145.211 190.079 144.677 190.092C144.143 190.104 143.871 191.562 144.408 191.624C144.945 191.686 146.016 189.203 142.454 189.608C141.199 189.752 143.166 198.788 142.879 199.634C142.592 200.479 137.332 202.395 133.427 201.877C129.522 201.359 129.915 201.312 126.16 201.206C123.113 201.122 121.231 198.847 121.231 198.847" stroke="white" stroke-miterlimit="10" stroke-linecap="round" stroke-linejoin="round"/>
<path d="M151.909 194.005C151.394 194.857 143.993 195.028 144.889 194.167C145.785 193.306 152.733 193.296 152.325 195.521C151.919 197.743 152.409 202.389 148.754 202.779C145.098 203.169 144.849 195.696 144.849 195.696" stroke="white" stroke-miterlimit="10" stroke-linecap="round" stroke-linejoin="round"/>
<path d="M131.563 189.137C131.563 189.137 120.635 178.862 122.611 168.59C124.587 158.319 132.053 157.763 133.308 159.108C134.56 160.453 129.837 160.793 129.694 164.534C129.553 168.275 130.137 160.631 132.184 160.05C134.232 159.47 137.532 160.231 136.711 164.219" stroke="white" stroke-miterlimit="10" stroke-linecap="round" stroke-linejoin="round"/>
<path d="M142.648 186.513C142.648 186.513 149.275 189.106 152.612 184.906C155.949 180.706 150.442 180.226 149.312 177.58C148.182 174.934 149.846 184.054 154.997 179.05C160.147 174.045 152.268 173.389 152.268 173.389" stroke="white" stroke-miterlimit="10" stroke-linecap="round" stroke-linejoin="round"/>
<path d="M132.696 162.403C130.58 163.367 129.603 167.205 132.587 167.517C135.571 167.829 137.12 165.426 135.465 163.252C133.811 161.077 132.799 163.467 133.261 163.685C133.723 163.904 132.696 162.325 132.088 162.415" stroke="white" stroke-miterlimit="10" stroke-linecap="round" stroke-linejoin="round"/>
<path d="M133.364 161.623C133.364 161.623 133.408 160.172 135.596 159.052C135.596 159.052 135.943 160.874 134.126 161.451" stroke="white" stroke-miterlimit="10" stroke-linecap="round" stroke-linejoin="round"/>
<path d="M150.108 175.733C150.108 175.733 149.113 178.884 151.123 179.907C153.133 180.928 153.37 178.023 153.823 177.786C154.276 177.545 157.996 176.697 154.981 175.012C152.072 173.386 150.764 174.269 150.561 175.342C150.358 176.416 151.866 175.695 150.286 173.442C148.707 171.189 149.702 168.038 150.979 167.167C150.979 167.167 152.343 173.239 149.996 174.135" stroke="white" stroke-miterlimit="10" stroke-linecap="round" stroke-linejoin="round"/>
<path d="M109.731 196.342C109.731 196.342 104.746 155.173 110.053 152.609C115.363 150.047 141.427 146.845 141.771 148.484C142.114 150.122 146.487 163.71 148.925 163.654C151.363 163.598 173.07 159.099 173.919 172.007C174.768 184.915 181.32 187.171 181.32 187.171" stroke="white" stroke-miterlimit="10" stroke-linecap="round" stroke-linejoin="round"/>
<path d="M427.013 151.672C425.205 154.34 423.248 156.687 421.16 158.743C406.42 156.571 383.808 158.506 352.555 163.177C338.059 165.342 327.414 171.676 319.716 178.332C316.199 176.562 312.887 175.879 310.08 176.491C310.14 175.511 310.458 174.581 311.092 173.714C315.072 168.247 323.334 156.892 326.887 141.039C331.36 137.7 335.767 133.251 338.58 127.506C341.296 121.962 335.355 114.975 326.147 107.531C324.564 101.515 322.133 95.1901 318.63 88.597C295.69 45.3788 288.061 76.9867 289.001 81.096C282.505 76.191 277.445 71.623 275.562 67.7103C268.339 52.7113 289.622 19.9334 314.454 20.7852C312.269 32.2708 316.445 44.4739 324.83 44.087C342.457 43.2789 348.385 29.4376 320.943 21.7899C318.764 21.1815 316.595 20.8601 314.454 20.7821C316.863 8.11398 327.015 -3.68671 347.81 3.23707C387.454 16.4356 389.386 45.0169 379.578 50.8891C369.773 56.7645 451.791 115.032 427.013 151.672Z" stroke="white" stroke-width="2" stroke-miterlimit="10" stroke-linecap="round" stroke-linejoin="round"/>
<path d="M319.716 178.328C317.378 180.344 315.312 182.394 313.492 184.363C303.378 195.306 300.844 203.833 301.527 191.508C302.042 182.197 305.354 177.511 310.077 176.487C312.887 175.879 316.198 176.562 319.716 178.328Z" stroke="white" stroke-width="2" stroke-miterlimit="10" stroke-linecap="round" stroke-linejoin="round"/>
<path d="M323.609 285.642C313.386 314.277 297.881 338.711 278.041 341.276C231.068 347.348 160.491 246.128 199.076 236.845C218.882 232.077 235.413 258.465 232.592 264.44C241.778 280.372 255.457 304.467 269.132 305.659C287.761 307.278 294.991 209.721 299.505 203.652C307.224 193.277 320.931 236.427 323.609 285.642Z" stroke="white" stroke-width="2" stroke-miterlimit="10" stroke-linecap="round" stroke-linejoin="round"/>
<path d="M458.653 361.926C462.779 337.407 452.541 260.468 445.392 216.33C441.943 248.312 454.279 328.661 470.486 325.129C512.205 316.033 443.198 160.83 421.16 158.74C406.326 157.336 383.808 158.503 352.555 163.174C338.062 165.342 327.414 171.676 319.717 178.329C320.297 178.625 320.887 178.946 321.48 179.299C325.423 181.636 329.568 185.259 333.523 189.889C341.711 199.477 337.603 246.48 323.612 285.642C325.697 323.865 321.127 365.745 301.936 389.043" stroke="white" stroke-width="2" stroke-miterlimit="10" stroke-linecap="round" stroke-linejoin="round"/>
<path d="M324.83 44.087C316.445 44.4739 312.265 32.2707 314.454 20.7852C316.595 20.86 318.764 21.1845 320.943 21.793C348.385 29.4375 342.457 43.2757 324.83 44.087Z" stroke="white" stroke-width="2" stroke-miterlimit="10" stroke-linecap="round" stroke-linejoin="round"/>
<path d="M326.883 141.035C319.027 146.902 315.156 147.454 315.156 147.454C307.056 142.842 296.221 125.425 296.221 125.425C292.928 126.224 287.015 122.632 286.201 120.891C285.392 119.153 298.384 103.758 293.848 97.1682C291.592 93.8858 288.817 87.4082 288.998 81.0897C300.085 89.4582 315.356 98.8032 326.144 107.524C329.459 120.146 329.04 131.419 326.883 141.035Z" stroke="white" stroke-width="2" stroke-miterlimit="10" stroke-linecap="round" stroke-linejoin="round"/>
<path d="M33.1915 300H188.425" stroke="white" stroke-width="2" stroke-miterlimit="10" stroke-linecap="round" stroke-linejoin="round"/>
<path d="M44.7412 313H199.975" stroke="white" stroke-width="2" stroke-miterlimit="10" stroke-linecap="round" stroke-linejoin="round"/>
<path d="M244.581 177.923H294.885" stroke="white" stroke-width="2" stroke-miterlimit="10" stroke-linecap="round" stroke-linejoin="round"/>
<path d="M72.6258 154.827C72.6258 154.827 59.9961 78.5407 77.9386 50.6396C95.8812 22.7386 77.8606 112.841 60.5673 91.733C43.2741 70.6247 51.8583 23.1817 28.2002 20.9507C4.54217 18.7198 62.9116 75.745 96.9425 81.3083C130.973 86.8717 149.506 78.7154 150.489 66.0504C151.469 53.3854 71.0369 126.186 55.3013 107.244C39.5657 88.3007 40.5302 70.7183 25.4595 66.0723C25.4595 66.0723 20.8334 89.3273 40.6052 95.29" stroke="white" stroke-width="2" stroke-miterlimit="10" stroke-linecap="round" stroke-linejoin="round"/>
<path d="M58.0732 43.5723C58.0732 43.5723 72.0764 46.4086 76.4621 31.2973C76.4621 31.3004 59.5872 30.9947 58.0732 43.5723Z" stroke="#4DFFA5" stroke-width="2" stroke-miterlimit="10" stroke-linecap="round" stroke-linejoin="round"/>
<path d="M132.809 63.9785C132.809 63.9785 123.326 61.8817 121.24 46.2588C121.24 46.2588 133.383 48.7893 130.318 60.8427" stroke="#4DFFA5" stroke-width="2" stroke-miterlimit="10" stroke-linecap="round" stroke-linejoin="round"/>
<path d="M9.1402 45.669C9.1402 45.669 17.5309 52.7707 28.5873 46.939C28.5873 46.939 23.2901 37.6126 9.1402 45.669Z" stroke="#4DFFA5" stroke-width="2" stroke-miterlimit="10" stroke-linecap="round" stroke-linejoin="round"/>
<path d="M84.4845 92.3694C84.4845 92.3694 88.5987 105.593 101.219 105.203C101.222 105.203 103.317 95.7237 84.4845 92.3694Z" stroke="#4DFFA5" stroke-width="2" stroke-miterlimit="10" stroke-linecap="round" stroke-linejoin="round"/>
<path d="M88.2709 40.8702C88.2709 40.8702 87.1627 25.9524 100.844 24.099C100.844 24.099 100.401 38.4864 88.2709 40.8702Z" stroke="#4DFFA5" stroke-width="2" stroke-miterlimit="10" stroke-linecap="round" stroke-linejoin="round"/>
<path d="M35.3204 17.4779C35.3204 17.4779 30.7412 12.0893 35.3298 5.74585C35.3298 5.74585 39.9059 11.1314 35.3204 17.4779Z" stroke="#4DFFA5" stroke-width="2" stroke-miterlimit="10" stroke-linecap="round" stroke-linejoin="round"/>
<path d="M123.457 91.1027C123.457 91.1027 128.136 115.88 145.641 119.016C145.641 119.016 139.729 96.7659 123.457 91.1027Z" stroke="#4DFFA5" stroke-width="2" stroke-miterlimit="10" stroke-linecap="round" stroke-linejoin="round"/>
<path d="M44.7537 106.61C44.3104 105.992 42.3657 107.858 42.1472 109.184C41.9287 110.514 30.0638 111.3 30.2792 124.982C30.2792 124.982 27.3262 129.684 29.0993 130.521C30.8723 131.357 34.9833 127.934 34.9833 127.934C34.9833 127.934 42.6935 129.194 46.6173 123.559C50.541 117.924 45.737 110.592 45.737 110.592C45.737 110.592 47.588 107.621 42.2721 106.751" stroke="#4DFFA5" stroke-width="2" stroke-miterlimit="10" stroke-linecap="round" stroke-linejoin="round"/>
<path d="M103.451 51.5382C101.325 51.1919 101.512 55.0422 101.512 55.0422C101.512 55.0422 95.413 58.955 97.5106 64.484C99.6083 70.0131 104.525 69.9975 104.525 69.9975C104.525 69.9975 105.817 72.1192 107.275 71.5389C108.733 70.9585 107.709 68.8804 107.709 68.8804C107.709 68.8804 114.389 66.4248 111.888 60.0127C109.388 53.6007 105.405 54.5867 105.405 54.5867C105.405 54.5867 105.845 51.9314 103.451 51.5382Z" stroke="#4DFFA5" stroke-width="2" stroke-miterlimit="10" stroke-linecap="round" stroke-linejoin="round"/>
<path d="M3.80863 69.9008C6.45256 65.4202 12.4771 65.3141 12.4771 65.3141C12.4771 65.3141 14.2845 62.6089 16.1012 63.1767C17.9179 63.7446 16.1106 66.453 16.1106 66.453C16.1106 66.453 19.6285 73.305 16.0138 78.7155C12.3991 84.1259 5.52859 82.7312 5.52859 82.7312C5.52859 82.7312 2.78789 84.466 1.50182 83.9824C0.215753 83.4988 2.24162 79.4643 2.24162 79.4643C2.24162 79.4643 -2.75594 66.6402 7.30162 68.5591" stroke="#4DFFA5" stroke-width="2" stroke-miterlimit="10" stroke-linecap="round" stroke-linejoin="round"/>
</svg>
