<svg width="622" height="301" viewBox="0 0 622 301" fill="none" xmlns="http://www.w3.org/2000/svg">
<path d="M212.074 277.565C203.443 269.348 323.459 258.666 402.374 291.123C481.289 323.58 582.399 247.573 518.281 211.418C454.162 175.264 406.896 198.682 401.963 218.813C397.031 238.945 447.175 208.131 422.925 171.155C398.675 134.179 332.502 105.419 281.947 151.024C231.392 196.628 227.693 240.999 186.591 219.635C145.49 198.271 99.0449 282.906 179.193 291.123C259.341 299.34 331.68 261.952 331.68 261.952" stroke="#4DFFA5" stroke-width="2" stroke-miterlimit="10"/>
<path d="M244.544 51.5984C239.612 52.4201 205.087 72.5517 200.977 60.6371C196.867 48.7225 216.184 0.242464 256.875 20.7848C297.565 41.3272 282.769 2.70755 311.951 1.06416C341.133 -0.579231 351.82 29.8235 346.887 37.6296C341.955 45.4357 335.79 19.5523 362.506 21.6065C389.222 23.6608 405.663 76.2493 340.311 65.9781C274.96 55.7069 222.35 56.9394 222.35 56.9394" stroke="white" stroke-width="2" stroke-miterlimit="10"/>
<path d="M463.04 92.675C455.851 83.813 469.99 63.4556 491.314 70.8796C512.637 78.3036 471.906 77.5846 498.264 48.3651C536.073 6.45044 562.958 71.3603 552.654 71.8368C542.35 72.3134 563.196 49.0841 579.489 78.3036C595.782 107.523 612.555 70.6372 619.263 84.7703C625.971 98.9035 585.716 116.866 546.661 101.537C507.607 86.2083 455.371 105.847 449.62 102.733C443.87 99.6184 452.498 84.7703 473.102 89.5608" stroke="white" stroke-width="2" stroke-miterlimit="10"/>
<path d="M32.0943 136.434C32.0943 136.434 28.8473 104.203 57.1868 112.987C85.5264 121.771 83.8371 85.2016 95.5387 83.8089C107.24 82.4161 135.674 99.4909 138.28 116.381C140.886 133.271 120.557 104.553 152.941 102.478C185.325 100.403 177.721 151.122 195.563 148.998C213.406 146.874 238.486 163.164 184.413 162.482C130.339 161.8 47.4047 155.37 15.7935 168.92C-15.8178 182.47 8.0458 131.295 42.2546 129.594" stroke="white" stroke-width="2" stroke-miterlimit="10"/>
<path d="M170.562 157.597C170.562 157.597 186.18 188.411 205.087 186.767C223.994 185.124 194.4 168.69 194.4 189.643C194.4 210.597 251.121 203.612 251.121 203.612" stroke="white" stroke-miterlimit="10"/>
<path d="M334.967 135.411C334.967 135.411 353.463 75.8384 323.048 57.3503" stroke="white" stroke-miterlimit="10"/>
<path d="M468.959 202.379C468.959 202.379 453.341 173.209 471.425 160.884C489.51 148.558 491.976 174.853 481.701 175.264C471.425 175.674 471.836 139.52 487.866 138.287C503.895 137.055 471.425 156.365 482.934 126.373C494.442 96.3808 519.925 92.2723 519.925 92.2723" stroke="white" stroke-miterlimit="10"/>
</svg>
