<svg width="541" height="469" viewBox="0 0 541 469" fill="none" xmlns="http://www.w3.org/2000/svg">
<path d="M6.52022 369.034C6.52022 369.034 38.0203 266.034 102.02 263.471C125.02 262.55 147.419 273.218 161.923 306.219C176.426 339.22 188.371 368.321 214.013 362.09C239.654 355.864 293.878 325.203 292.269 314.351C290.66 303.499 274.838 302.659 280.044 290.524C285.25 278.389 292.176 285.988 299.622 286.566C307.068 287.144 312.647 298.097 311.394 307.23C310.141 316.364 288.19 327.967 257.111 338.322C226.033 348.677 213.411 353.59 217.388 343.947C221.365 334.305 233.141 309.784 220.677 287.698C208.213 265.612 195.938 255.067 203.112 228.588C210.285 202.109 211.843 271.424 204.593 272.647C197.344 273.866 200.914 280.117 202.113 284.269C203.316 288.421 179.88 301.151 191.779 311.201C203.678 321.252 244.623 300.288 266.462 302.397C288.306 304.506 268.38 323.923 265.91 280.615C263.439 237.307 255.214 184.352 253.38 178.339C251.549 172.331 276.26 189.009 248.18 203.32C250.175 227.513 252.376 324.384 242.96 360.748C233.544 397.112 233.494 365.206 284.184 357.102C334.875 348.998 336.516 343.462 333.418 320.887C330.319 298.312 326.977 277.478 316.187 243.217C305.394 208.955 300.529 192.786 284.958 180.458C269.387 168.134 256.176 167.648 255.014 159.962C253.858 152.272 252.662 138.377 252.662 138.377C252.662 138.377 236.122 134.19 232.85 125.767C229.578 117.343 229.631 115.876 229.631 115.876C229.631 115.876 260.695 110.985 267.314 115.436C266.391 124.315 262.188 126.991 252.842 126.296C243.495 125.605 241.511 126.072 238.58 119.465C235.65 112.862 233.155 106.315 230.017 103.376C226.879 100.437 220.019 100.97 218.595 89.8472C217.17 78.7247 223.459 75.8957 237.338 73.6646C251.218 71.4334 268.079 77.5859 273.544 71.1002C279.008 64.6144 279.338 34.2439 248.711 28.4163C218.085 22.5886 196.905 38.2892 195.684 56.8756C194.464 75.462 202.562 89.5653 200.546 88.1061C198.535 86.6474 185.088 85.6899 192.192 102.761C199.296 119.833 204.836 112.766 209.508 120.643C214.18 128.519 230.156 146.512 252.028 146.26C273.9 146.008 277.436 105.15 277.596 99.7107C277.756 94.2712 276.052 51.8034 256.411 47.635C236.771 43.4624 218.228 47.4192 211.986 62.8034C205.743 78.1877 206.69 92.7884 208.141 100.519C209.592 108.249 207.846 137.099 206.934 140.517C206.022 143.936 224.943 144.762 246.704 173.288C237.368 178.947 228.741 189.135 227.704 188.105C226.664 187.076 209.659 158.314 197.618 152.527C180.848 159.676 154.784 175.445 149.154 182.056C143.524 188.667 134.442 229.06 140.936 263.471C147.429 297.882 163.039 362.629 134.617 405.243C106.196 447.857 114.523 371.036 278.186 404.118C441.85 437.201 394.429 373.108 307.529 387.098" stroke="white" stroke-width="2" stroke-miterlimit="10"/>
<path d="M294.728 167.358C294.728 167.358 316.357 151.715 330.169 147.848C330.169 147.848 326.751 124.338 329.224 122.464C331.698 120.586 367.203 113.494 378.5 115.044C389.797 116.594 386.754 138.774 386.754 138.774C386.754 138.774 419.741 146.843 432.002 154.286C432.002 154.286 445.237 135.279 449.959 136.365C454.68 137.457 481.945 154.933 480.243 160.904C478.542 166.876 468.075 181.833 468.075 181.833C468.075 181.833 490.432 209.271 491.21 226.214C491.21 226.214 515.215 225.52 515.113 229.493C515.011 233.467 514.541 272.397 511.812 272.905C509.087 273.418 488.504 271.747 488.504 271.747C488.504 271.747 481.473 303.746 471.141 316.065C471.141 316.065 487.719 325.87 487.318 332.02C486.918 338.17 469.466 365.461 464.28 366.08C459.094 366.7 443.681 349.962 443.681 349.962C443.681 349.962 402.022 366.406 389.199 369.521L389.916 382.468" stroke="#4DFFA5" stroke-width="2" stroke-miterlimit="10"/>
<path d="M313.085 188.487C313.085 188.487 375.061 143.375 428.802 180.876C482.543 218.377 469.676 292.827 449.489 310.882C429.303 328.936 401.34 345.31 362.24 345.882" stroke="#4DFFA5" stroke-width="2" stroke-miterlimit="10"/>
<path d="M372.388 233.842C363.142 233.461 351.987 246.997 359.58 262.658C367.172 278.322 385.229 279.025 394.243 271.4C403.257 263.775 405.261 210.436 353.061 239.166" stroke="#4DFFA5" stroke-width="2" stroke-miterlimit="10"/>
</svg>
