<svg width="442" height="327" viewBox="0 0 442 327" fill="none" xmlns="http://www.w3.org/2000/svg">
<path d="M41 43C41 43 438.877 73.9551 440 85.5C441.123 97.0449 42.2537 56.3488 43.073 68.5552C43.8924 80.7616 440 98.5341 440 110.5C440 122.466 49.5953 94.5166 49.5953 103.5C49.5953 112.471 437.507 131.5 440 138C438.007 150.5 49.5953 126.219 49.5953 134C49.5953 141.781 436.803 158.214 435.992 163C435.181 167.786 56.937 160.623 56.937 172C56.937 183.377 432.493 177.725 432.493 188.5C432.493 199.275 56.937 196.41 56.937 203" stroke="white" stroke-width="2" stroke-miterlimit="10"/>
<path d="M396.213 301.415C396.213 301.415 393.624 289.016 380.317 289.016C367.011 289.016 352.59 309.044 372.181 320.484C382.292 326.388 394.345 322.164 402.727 313.416C417.407 298.097 398.821 279.209 377.937 275.462C296.188 260.795 95.1626 223.603 88.9793 211.457C81.2198 196.205 63.6359 47.2849 61.989 40.4518C60.3748 33.7454 31.3033 1.98891 10.2289 1.0379C-10.8455 0.0868968 12.7772 17.4516 33.827 6.05358C54.8768 -5.3444 62.4151 39.1204 87.3569 41.7973C112.307 44.4812 429.603 56.7668 432.725 73.9695C435.846 91.1721 432.045 207.293 416.394 209.217C400.736 211.14 99.9426 200.087 70.8711 222.679C41.7995 245.27 46.8305 280.838 43.4711 289.495C40.1116 298.153 16.6364 282.289 6.56628 296.709C-3.49568 311.129 19.4223 335.644 38.4319 320.266C57.4414 304.888 42.7418 289.066 30.6068 287.1" stroke="#00FFA2" stroke-width="2" stroke-miterlimit="10"/>
</svg>
