<svg width="554" height="431" viewBox="0 0 554 431" fill="none" xmlns="http://www.w3.org/2000/svg">
<path d="M31.1439 321.421C31.1439 321.421 255.195 322.37 257.254 316.168C259.313 309.965 263.838 163.896 253.636 161.497C243.434 159.097 0.715109 151.543 1.00025 163.848C1.28539 176.153 0.629936 336.639 8.61392 338.651C16.5979 340.663 61.0282 430.199 81.7436 429.716C102.459 429.236 374.966 427.737 374.748 418.511C374.529 409.285 268.586 329.093 254.04 329.432C239.494 329.772 32.3844 336.779 34.7248 342.442C37.0652 348.105 60.6801 396.353 83.9877 393.614C107.295 390.875 251.211 378.297 258.991 390.428C266.771 402.559 268.834 415.259 262.22 415.414C255.61 415.569 165.038 427.346 162.169 417.74C159.299 408.134 151.681 384.13 167.979 383.314C184.276 382.498 296.752 383.399 296.611 377.248C296.467 371.098 254.666 337.336 249.818 337.447C244.971 337.561 63.9278 346.603 63.9278 346.603" stroke="#00FFA2" stroke-width="2" stroke-miterlimit="10"/>
<path d="M118.568 257.568C118.568 257.568 121.434 247.859 127.026 249.627" stroke="white" stroke-miterlimit="10"/>
<path d="M135.532 246.024C132.666 245.459 130.81 248.929 132.225 250.369C133.362 251.528 136.987 250.576 136.365 247.744C135.743 244.912 131.814 246.507 131.814 246.507" stroke="white" stroke-miterlimit="10"/>
<path d="M118.816 261.359C118.816 261.359 121.534 265.723 123.652 264.804C125.77 263.885 135.528 253.858 138.498 252.049C141.468 250.24 136.791 243.395 132.703 244.99C128.618 246.585 127.496 249.457 128.603 249.431C129.714 249.405 129.57 256.837 121.201 258.299C112.832 259.757 122.189 266.653 122.982 266.635C123.774 266.617 130.185 262.751 130.292 257.14C130.399 251.525 132.121 250.535 132.614 251.395C133.106 252.256 133.632 260.647 135.084 262.168C136.709 263.87 137.876 267.698 132.406 269.659C130.755 270.249 126.144 266.325 126.144 266.325" stroke="white" stroke-miterlimit="10"/>
<path d="M212.094 288.878C209.239 281.498 209.328 255.154 209.328 255.154C220.06 269.094 230.269 263.574 231.588 262.592C232.747 261.729 226.714 253.415 219.493 274.964C214.698 289.28 216.568 297.24 220.289 298.107C224.011 298.975 219.204 290.237 215.746 292.167C210.391 295.154 220.097 306.979 223.474 300.644C232.95 282.86 244.719 264.745 234.865 258.125C221.312 249.021 212.457 236.266 202.899 236.85C199.522 237.056 194.193 239.297 192.912 240.962C186.532 249.254 185.432 275.946 185.432 275.946C185.432 275.946 184.491 260.315 187.387 250.317C190.283 240.32 188.657 236.351 188.657 236.351C188.657 236.351 198.385 234.66 200.7 232.763C203.018 230.865 194.971 230.795 194.971 230.795C194.971 230.795 195.871 233.763 194.978 233.915C194.09 234.062 195.993 225.49 196.649 220.702C197.304 215.914 208.428 197.647 194.538 193.198C184.713 190.053 178.703 190.256 176.985 195.897C175.267 201.538 191.335 203.583 192.734 203.358C194.134 203.133 192.779 199.858 190.035 199.791C187.287 199.729 188.757 216.176 190.935 216.379C193.108 216.582 190.072 206.725 194.604 206.813C199.137 206.898 196.308 214.156 193.905 217.774C191.501 221.392 183.143 224.386 178.792 223.851C174.441 223.316 175.955 209.025 177.574 204.469C179.192 199.913 179.799 205.189 178.722 208.272C177.644 211.354 174.867 214.208 178.377 214.189C181.888 214.171 182.621 212.82 182.025 211.878" stroke="white" stroke-miterlimit="10"/>
<path d="M129.626 269.858C129.626 269.858 128.729 272.486 131.41 272.424C134.092 272.361 139.62 265.871 138.291 263.674C136.961 261.478 133.618 263.146 141.964 267.916C150.311 272.686 157.962 272.379 155.844 269.12C153.726 265.86 150.204 268.167 153.681 269.426C157.158 270.685 159.177 269.618 157.599 267.68C156.022 265.742 153.715 265.417 154.181 266.233C154.648 267.048 157.518 266.882 161.143 255.571C165.128 243.133 164.646 241.553 171.397 238.278C176.622 235.746 178.748 236.008 181.484 232.888C181.484 232.888 185.991 234.564 186.206 235.513C186.206 235.513 183.288 236.281 183.384 232.205C183.44 229.854 184.003 225.955 184.003 225.955" stroke="white" stroke-miterlimit="10"/>
<path d="M132.825 275.576C132.825 275.576 152.096 286.201 159.365 280.498C166.634 274.794 173.626 267.403 172.833 261.348C172.134 256.017 169.919 248.955 171.3 269.467C172.082 281.092 170.226 299.972 166.397 300.06C162.568 300.149 163.024 292.249 184.198 297.037C209.195 302.689 212.265 296.258 212.265 296.258" stroke="white" stroke-miterlimit="10"/>
<path d="M43.1791 272.745C37.6947 275.366 19.5382 289.336 27.3703 289.369C35.2025 289.402 140.92 286.729 140.92 286.729" stroke="white" stroke-miterlimit="10"/>
<path d="M55.1292 277.127C53.6257 271.058 55.144 263.434 53.6183 262.249C52.0926 261.064 50.2077 244.425 51.8223 243.572C53.4369 242.72 88.9574 237.555 88.8093 242.712C88.6575 247.87 53.8146 247.187 53.2036 244.355C52.5925 241.52 70.3862 234.461 80.755 235.713C91.1238 236.964 69.8788 241.797 69.8159 239.223C69.7566 236.647 68.3939 224.881 69.4419 223.227C70.4898 221.573 81.0808 220.65 81.6548 221.857C82.2288 223.064 71.4119 226.029 70.9638 224.275C70.5158 222.522 82.0881 222.932 82.1325 224.829C82.177 226.727 79.4366 237.507 85.2913 237.776C91.146 238.046 89.6721 253.632 89.2537 255.995C88.4723 260.422 89.35 260.064 92.7569 260.388C96.1675 260.717 95.2602 256.94 94.3085 256.962C93.3568 256.985 92.8717 259.573 93.8271 259.687C94.7825 259.801 96.6933 255.382 90.3424 256.106C88.102 256.361 91.6089 272.42 91.0978 273.923C90.5905 275.425 81.2142 278.833 74.2522 277.91C67.2903 276.987 67.9976 276.905 61.2986 276.717C55.8735 276.566 52.5148 272.527 52.5148 272.527" stroke="white" stroke-miterlimit="10"/>
<path d="M107.195 263.921C106.277 265.435 93.09 265.742 94.6861 264.213C96.2821 262.685 108.662 262.666 107.94 266.616C107.217 270.567 108.088 278.822 101.574 279.512C95.0601 280.202 94.612 266.923 94.612 266.923" stroke="white" stroke-miterlimit="10"/>
<path d="M70.9378 255.268C70.9378 255.268 51.463 237.005 54.981 218.745C58.499 200.489 71.8081 199.5 74.0411 201.892C76.2741 204.284 67.8531 204.882 67.6013 211.535C67.3495 218.188 68.3901 204.598 72.0414 203.564C75.689 202.531 81.5733 203.886 80.1068 210.974" stroke="white" stroke-miterlimit="10"/>
<path d="M90.6943 250.605C90.6943 250.605 102.504 255.213 108.451 247.751C114.398 240.29 104.585 239.434 102.57 234.731C100.556 230.031 103.518 246.238 112.698 237.344C121.879 228.451 107.836 227.284 107.836 227.284" stroke="white" stroke-miterlimit="10"/>
<path d="M72.9559 207.751C69.1861 209.468 67.4419 216.29 72.7597 216.844C78.0774 217.398 80.8362 213.13 77.8885 209.265C74.9408 205.399 73.1374 209.645 73.9595 210.032C74.7853 210.42 72.9522 207.614 71.8672 207.777" stroke="white" stroke-miterlimit="10"/>
<path d="M74.1484 206.367C74.1484 206.367 74.2225 203.786 78.1219 201.8C78.1219 201.8 78.7403 205.041 75.5001 206.064" stroke="white" stroke-miterlimit="10"/>
<path d="M103.985 231.445C103.985 231.445 102.211 237.045 105.792 238.862C109.373 240.678 109.795 235.513 110.602 235.089C111.409 234.664 118.038 233.154 112.665 230.156C107.477 227.266 105.151 228.838 104.788 230.747C104.425 232.656 107.117 231.371 104.299 227.369C101.485 223.367 103.259 217.763 105.536 216.22C105.536 216.22 107.965 227.015 103.785 228.602" stroke="white" stroke-miterlimit="10"/>
<path d="M32.0326 268.071C32.0326 268.071 23.1451 194.9 32.6066 190.344C42.0681 185.788 88.5204 180.103 89.1314 183.016C89.7424 185.929 97.5375 210.08 101.885 209.977C106.232 209.874 144.912 201.877 146.426 224.822C147.941 247.762 159.613 251.775 159.613 251.775" stroke="white" stroke-miterlimit="10"/>
<path d="M460.683 272.772C460.683 272.769 460.683 272.769 460.683 272.769" stroke="white" stroke-width="1.8027" stroke-miterlimit="10"/>
<path d="M348.844 145.892C344.336 142.993 340.604 140.864 338.202 139.985C324.871 135.103 324.327 157.343 342.555 170.361C344.075 171.449 345.433 172.732 346.635 174.175" stroke="white" stroke-width="1.8027" stroke-miterlimit="10"/>
<path d="M390.643 331.748C390.73 331.927 390.82 332.106 390.907 332.288C419.668 391.153 458.45 369.708 458.45 369.708" stroke="white" stroke-width="1.8027" stroke-miterlimit="10"/>
<path d="M349.517 306.427C344.728 308.627 327.951 306.739 333.305 286.986C333.83 285.052 334.366 283.425 334.91 282.066C339.986 269.34 345.468 280.3 344.731 283.731C344.315 285.668 339.442 285.066 334.91 282.066C330.554 279.186 326.514 274.092 327.048 266.916C328.136 252.286 337.538 237.383 346.421 230.998" stroke="white" stroke-width="1.8027" stroke-miterlimit="10"/>
<path d="M354.585 243.322C354.585 243.322 357.18 234.532 362.241 236.132" stroke="white" stroke-miterlimit="10"/>
<path d="M369.942 232.87C367.347 232.357 365.668 235.5 366.947 236.802C367.975 237.852 371.259 236.989 370.696 234.426C370.133 231.863 366.577 233.306 366.577 233.306" stroke="white" stroke-miterlimit="10"/>
<path d="M354.808 246.753C354.808 246.753 357.27 250.705 359.188 249.872C361.106 249.04 369.94 239.962 372.628 238.324C375.316 236.686 371.08 230.488 367.382 231.934C363.682 233.379 362.668 235.98 363.672 235.956C364.675 235.932 364.545 242.663 356.968 243.984C349.391 245.305 357.863 251.548 358.581 251.532C359.3 251.516 365.103 248.017 365.201 242.934C365.298 237.852 366.855 236.957 367.304 237.732C367.752 238.508 368.226 246.108 369.543 247.486C371.014 249.026 372.07 252.495 367.116 254.269C365.622 254.806 361.446 251.253 361.446 251.253" stroke="white" stroke-miterlimit="10"/>
<path d="M426.266 225.707C424.299 226.458 422.536 227.451 421.894 228.286C416.118 235.796 415.122 259.959 415.122 259.959C415.122 259.959 414.271 245.807 416.891 236.756C419.511 227.708 418.039 224.112 418.039 224.112C418.039 224.112 422.011 223.423 425.256 222.447H425.259" stroke="white" stroke-miterlimit="10"/>
<path d="M427.585 219.401C426.021 219.113 423.945 219.086 423.771 219.083C423.763 219.083 423.76 219.083 423.76 219.083C423.76 219.083 423.763 219.092 423.768 219.111V219.113C423.855 219.412 424.522 221.779 423.768 221.904C423.453 221.958 423.526 220.8 423.768 219.113V219.111C423.768 219.1 423.768 219.092 423.771 219.083C424.146 216.458 424.922 212.571 425.281 209.943C425.871 205.609 435.945 189.07 423.368 185.04C414.475 182.192 409.031 182.376 407.475 187.484C406.368 191.118 413.414 193.103 418.028 193.871C418.191 192.173 418.588 190.996 419.29 191.012C421.774 191.069 423.001 194.036 421.733 194.24C421.369 194.297 419.897 194.185 418.028 193.871C417.606 198.191 418.689 205.897 420.104 206.03C422.071 206.214 419.32 197.291 423.425 197.37C427.531 197.445 424.968 204.017 422.792 207.293C420.612 210.57 413.047 213.282 409.107 212.797C405.165 212.311 406.539 199.374 408.003 195.249C409.466 191.126 410.016 195.902 409.042 198.69C408.065 201.479 405.552 204.063 408.729 204.047C411.907 204.031 412.57 202.807 412.032 201.956" stroke="white" stroke-miterlimit="10"/>
<path d="M448.128 234.421C451.651 237.507 455.492 240.876 459.881 243.824C468.807 249.818 458.15 266.219 449.57 282.321C446.512 288.057 437.722 277.352 442.57 274.648C442.856 274.485 443.155 274.409 443.457 274.399C446.436 274.277 449.744 280.737 446.683 280.026C445.046 279.644 443.802 277.74 443.457 274.399C443.095 270.867 443.732 265.728 445.962 259.069C447.442 254.648 448.868 251.616 450.179 249.579C454.641 242.622 457.723 247.26 456.913 247.868C456.322 248.307 453.776 249.747 450.179 249.579C446.485 249.406 441.683 247.534 436.759 241.136C436.759 241.136 436.68 264.99 439.264 271.67" stroke="white" stroke-miterlimit="10"/>
<path d="M364.597 254.45C364.597 254.45 363.786 256.832 366.213 256.775C368.639 256.718 373.645 250.84 372.443 248.852C371.24 246.864 368.212 248.375 375.77 252.693C383.328 257.011 390.254 256.734 388.336 253.783C386.418 250.832 383.23 252.923 386.377 254.06C389.525 255.196 391.35 254.233 389.925 252.479C388.496 250.727 386.41 250.428 386.832 251.169C387.253 251.909 389.854 251.757 393.138 241.516C396.748 230.255 396.31 228.826 402.423 225.858C407.154 223.564 409.08 223.803 411.556 220.979C411.556 220.979 415.637 222.498 415.83 223.358C415.83 223.358 413.188 224.052 413.275 220.364C413.324 218.232 413.836 214.703 413.836 214.703" stroke="white" stroke-miterlimit="10"/>
<path d="M367.491 259.625C367.491 259.625 384.938 269.245 391.522 264.079C398.105 258.912 404.433 252.224 403.715 246.742C403.081 241.917 401.076 235.522 402.328 254.092C403.035 264.618 401.357 281.713 397.891 281.795C394.425 281.876 394.835 274.721 414.01 279.058C436.642 284.176 439.422 278.353 439.422 278.353" stroke="white" stroke-miterlimit="10"/>
<path d="M347.582 270.406C363.114 270.021 374.82 269.726 374.82 269.726" stroke="white" stroke-miterlimit="10"/>
<path d="M346.415 228.614C347.231 229.712 347.476 231.028 346.489 232.856" stroke="white" stroke-miterlimit="10"/>
<path d="M346.266 216.103C349.321 216.67 355.812 218.671 349.266 225.012C348.219 226.027 347.264 226.68 346.393 227.054" stroke="white" stroke-miterlimit="10"/>
<path d="M346.363 225.012V225.01C346.807 224.098 347.057 223.133 347.373 222.967C348.102 222.582 354.106 221.215 349.239 218.503C348.102 217.871 347.117 217.475 346.274 217.261" stroke="white" stroke-miterlimit="10"/>
<path d="M346.233 199.474C357.613 198.3 378.752 197.63 379.81 213.675C381.181 234.448 391.748 238.077 391.748 238.077" stroke="white" stroke-miterlimit="10"/>
<path d="M355.257 146.388C356.187 145.496 357.093 144.807 357.961 144.295C365.66 139.727 370.56 148.783 365.486 151.314C362.586 152.759 359.868 148.905 357.961 144.295C356.163 139.939 355.085 134.905 355.257 133.025C355.61 129.155 453.68 126.343 458.972 133.025C460.822 135.358 462.196 159.567 463.156 190.204" stroke="#00FFA2" stroke-width="1.8027" stroke-miterlimit="10"/>
<path d="M459.44 329.592C447.314 330.818 416.186 331.675 390.643 331.748C371 331.802 354.658 331.393 352.786 330.327C351.701 329.709 350.55 320.506 349.516 306.427C348.104 287.217 346.916 258.928 346.42 230.998C346.061 210.651 346.072 190.494 346.635 174.175C347.049 162.201 347.762 152.293 348.844 145.892C349.53 141.816 350.368 139.163 351.377 138.301" stroke="#00FFA2" stroke-width="1.8027" stroke-miterlimit="10"/>
<path d="M464.119 229.105C464.288 237.977 464.429 246.867 464.546 255.484" stroke="#00FFA2" stroke-width="1.8027" stroke-miterlimit="10"/>
<path d="M496.265 344.485C496.265 344.485 461.986 358.045 457.293 319.874C452.601 281.703 475.589 218.639 475.589 218.639C463.891 236.539 437.502 235.183 437.502 235.183C437.502 235.183 424.443 227.318 425.259 222.436C426.075 217.554 454.641 202.908 458.178 196.941C461.714 190.974 478.854 168.463 492.729 186.092C506.603 203.721 518.302 238.166 516.125 251.456C513.949 264.746 523.199 337.975 553.125 365.64" stroke="white" stroke-width="1.8027" stroke-miterlimit="10"/>
<path d="M404.999 306.411C400.826 307.121 394.416 314.851 397.945 317.314C401.473 319.776 419.111 325.754 419.818 317.314C420.52 308.873 419.462 303.948 404.999 306.411Z" stroke="#00FFA2" stroke-width="1.8027" stroke-miterlimit="10"/>
<path d="M213.425 77.6838C213.425 77.6838 215.495 70.6716 219.533 71.9463" stroke="white" stroke-miterlimit="10"/>
<path d="M225.674 69.345C223.605 68.9354 222.265 71.4419 223.286 72.4843C224.107 73.3219 226.726 72.6341 226.275 70.5891C225.824 68.5441 222.991 69.6934 222.991 69.6934" stroke="white" stroke-miterlimit="10"/>
<path d="M213.603 80.4197C213.603 80.4197 215.565 83.5712 217.095 82.9079C218.625 82.2446 225.671 75.0031 227.818 73.6978C229.964 72.3926 226.585 67.4467 223.632 68.5991C220.683 69.7515 219.87 71.8271 220.673 71.8087C221.474 71.7904 221.373 77.1581 215.326 78.2127C209.283 79.2673 216.04 84.2468 216.611 84.2346C217.184 84.2223 221.814 81.4315 221.891 77.3751C221.967 73.3218 223.212 72.6065 223.568 73.2271C223.927 73.8476 224.304 79.9092 225.352 81.0066C226.527 82.2354 227.37 85.0018 223.418 86.4171C222.225 86.845 218.895 84.0114 218.895 84.0114" stroke="white" stroke-miterlimit="10"/>
<path d="M280.973 100.298C278.913 94.97 278.974 75.9415 278.974 75.9415C286.726 86.0105 294.1 82.0245 295.05 81.3123C295.887 80.6887 291.53 74.6851 286.315 90.2472C282.85 100.585 284.202 106.335 286.891 106.962C289.58 107.588 286.109 101.279 283.61 102.673C279.741 104.831 286.753 113.372 289.194 108.793C296.041 95.9481 304.54 82.8651 297.421 78.0843C287.633 71.5091 281.237 62.2991 274.335 62.7178C271.894 62.8676 268.046 64.4847 267.12 65.689C262.512 71.6803 261.718 90.9533 261.718 90.9533C261.718 90.9533 261.04 79.6646 263.128 72.4445C265.219 65.2275 264.045 62.3571 264.045 62.3571C264.045 62.3571 271.07 61.1375 272.744 59.765C274.418 58.3925 268.608 58.3436 268.608 58.3436C268.608 58.3436 269.258 60.4894 268.614 60.5964C267.97 60.7034 269.346 54.5134 269.819 51.0562C270.291 47.599 278.327 34.4059 268.295 31.1902C261.2 28.9159 256.858 29.0657 255.616 33.1404C254.374 37.2151 265.98 38.6915 266.992 38.5295C268.003 38.3675 267.025 36.0016 265.042 35.9557C263.058 35.9099 264.119 47.7885 265.692 47.9352C267.265 48.082 265.066 40.9627 268.341 41.0269C271.615 41.088 269.57 46.3304 267.835 48.944C266.099 51.5575 260.062 53.7217 256.919 53.3335C253.776 52.9484 254.871 42.6256 256.039 39.3365C257.207 36.0474 257.646 39.8562 256.867 42.0815C256.088 44.3068 254.083 46.3671 256.619 46.3549C259.154 46.3427 259.685 45.3645 259.253 44.6859" stroke="white" stroke-miterlimit="10"/>
<path d="M221.412 86.5607C221.412 86.5607 220.766 88.459 222.7 88.4162C224.635 88.3703 228.63 83.6812 227.671 82.0948C226.711 80.5083 224.298 81.7127 230.323 85.1576C236.351 88.6026 241.876 88.3826 240.346 86.0288C238.816 83.6751 236.274 85.3411 238.782 86.2489C241.294 87.1568 242.75 86.3865 241.613 84.9895C240.475 83.5926 238.807 83.3541 239.144 83.9441C239.482 84.5341 241.554 84.4148 244.173 76.2441C247.052 67.2602 246.702 66.12 251.581 63.7541C255.355 61.923 256.891 62.1126 258.866 59.8628C258.866 59.8628 262.122 61.0733 262.276 61.761C262.276 61.761 260.169 62.3143 260.237 59.3737C260.276 57.6741 260.684 54.8588 260.684 54.8588" stroke="white" stroke-miterlimit="10"/>
<path d="M223.721 90.6905C223.721 90.6905 237.639 98.363 242.891 94.2425C248.143 90.1219 253.19 84.7848 252.617 80.4136C252.111 76.5651 250.514 71.4633 251.51 86.2765C252.074 94.6735 250.734 108.31 247.969 108.374C245.203 108.438 245.531 102.731 260.825 106.191C278.879 110.275 281.096 105.629 281.096 105.629" stroke="white" stroke-miterlimit="10"/>
<path d="M158.975 88.6455C155.014 90.5377 141.903 100.628 147.557 100.653C153.211 100.677 229.565 98.7482 229.565 98.7482" stroke="white" stroke-miterlimit="10"/>
<path d="M167.607 91.8093C166.521 87.4258 167.616 81.9206 166.515 81.0647C165.415 80.2088 164.053 68.1926 165.218 67.5781C166.383 66.9637 192.038 63.2314 191.931 66.9576C191.821 70.6838 166.656 70.1886 166.215 68.1436C165.773 66.0956 178.624 60.9969 186.114 61.9017C193.605 62.8065 178.259 66.2973 178.216 64.4358C178.173 62.5742 177.189 54.0763 177.946 52.8842C178.703 51.692 186.354 51.0226 186.767 51.8969C187.181 52.7711 179.369 54.9108 179.047 53.6423C178.722 52.3768 187.08 52.6733 187.114 54.0427C187.148 55.4121 185.167 63.1978 189.395 63.3934C193.623 63.589 192.56 74.8472 192.259 76.5498C191.695 79.7472 192.326 79.4874 194.789 79.7227C197.251 79.9581 196.598 77.2315 195.911 77.2467C195.224 77.262 194.874 79.1328 195.564 79.2153C196.254 79.2978 197.634 76.1066 193.047 76.6293C191.431 76.8127 193.961 88.4132 193.593 89.4983C193.225 90.5835 186.455 93.0442 181.426 92.3778C176.401 91.7114 176.907 91.6534 172.071 91.5189C168.153 91.4088 165.727 88.4926 165.727 88.4926" stroke="white" stroke-miterlimit="10"/>
<path d="M205.211 82.272C204.548 83.3664 195.022 83.5865 196.175 82.483C197.327 81.3795 206.268 81.3672 205.747 84.2192C205.223 87.0712 205.855 93.0319 201.151 93.5333C196.447 94.0346 196.122 84.4424 196.122 84.4424" stroke="white" stroke-miterlimit="10"/>
<path d="M179.025 76.024C179.025 76.024 164.961 62.834 167.503 49.647C170.044 36.4631 179.657 35.7478 181.27 37.4749C182.883 39.202 176.799 39.6361 176.618 44.4413C176.434 49.2466 177.189 39.4313 179.826 38.6854C182.463 37.9396 186.709 38.9177 185.648 44.0348" stroke="white" stroke-miterlimit="10"/>
<path d="M193.292 72.6554C193.292 72.6554 201.819 75.9843 206.115 70.5952C210.411 65.2061 203.322 64.5855 201.865 61.1925C200.409 57.7964 202.552 69.5039 209.181 63.0785C215.81 56.6532 205.671 55.8126 205.671 55.8126" stroke="white" stroke-miterlimit="10"/>
<path d="M180.485 41.7055C177.762 42.9435 176.502 47.871 180.344 48.2715C184.186 48.6719 186.176 45.5876 184.048 42.7968C181.92 40.0059 180.614 43.0719 181.212 43.3531C181.809 43.6343 180.482 41.6077 179.7 41.7238" stroke="white" stroke-miterlimit="10"/>
<path d="M181.343 40.7059C181.343 40.7059 181.398 38.8443 184.213 37.4077C184.213 37.4077 184.661 39.7492 182.321 40.4889" stroke="white" stroke-miterlimit="10"/>
<path d="M202.892 58.8144C202.892 58.8144 201.611 62.8615 204.196 64.1729C206.78 65.4843 207.087 61.755 207.67 61.4462C208.252 61.1375 213.042 60.0493 209.16 57.8851C205.413 55.7973 203.733 56.9344 203.472 58.31C203.208 59.6886 205.152 58.7593 203.119 55.8707C201.086 52.979 202.368 48.9318 204.012 47.816C204.012 47.816 205.765 55.6108 202.748 56.7602" stroke="white" stroke-miterlimit="10"/>
<path d="M150.927 85.2708C150.927 85.2708 144.509 32.4251 151.341 29.136C158.172 25.8469 191.722 21.7386 192.164 23.8417C192.605 25.9447 198.235 43.3867 201.375 43.3164C204.515 43.2461 232.451 37.4658 233.545 54.0366C234.64 70.6074 243.069 73.5022 243.069 73.5022" stroke="white" stroke-miterlimit="10"/>
<path d="M139.711 9.94252C133.103 13.1307 134.97 118.779 139.711 118.779C144.451 118.779 306.95 133.122 308.817 120.852C310.684 108.582 307.811 14.0875 298.616 9.94252C289.42 5.79753 140.431 0.0630027 133.821 7.87003C127.213 15.677 126.063 113.36 131.236 125.792C136.408 138.223 323.762 135.671 324.194 130.095C324.626 124.52 329.655 58.2275 318.733 59.5021C307.815 60.7768 311.981 71.7721 316.148 71.6131C320.315 71.4542 326.494 64.2829 326.923 53.1287C327.352 41.9745 326.061 10.1045 321.177 9.62462C316.293 9.14776 262.125 -0.413855 143.448 1.17873" stroke="#00FFA2" stroke-width="2" stroke-miterlimit="10"/>
</svg>
