<svg width="640" height="619" viewBox="0 0 640 619" fill="none" xmlns="http://www.w3.org/2000/svg">
<path d="M397.858 49.945L379.745 353.64C378.794 369.583 392.516 383.367 410.386 384.433L556.045 393.12C564.254 393.61 571.752 397.581 576.205 403.802L586.569 418.271L587.643 400.256C587.855 396.702 591.256 394.016 595.241 394.253C607.553 394.988 618.025 386.592 618.501 375.6L630.677 95.489C631.525 75.952 616.387 58.5485 594.913 54.3727L436.707 23.6111C417.3 19.8413 398.91 32.3075 397.858 49.945Z" fill="white" stroke="#00FFA2" stroke-width="2" stroke-miterlimit="10" stroke-linejoin="round"/>
<path d="M622.061 256.985C600.853 256.179 592.269 265.425 572.495 295.132C552.721 324.838 536.115 351.184 512.241 340.7C488.366 330.215 440.893 290.992 444.321 280.681C447.75 270.37 463.282 272.266 460.299 259.532C457.321 246.802 449.278 253.022 441.937 252.307C434.595 251.592 427.288 261.32 426.94 270.445C426.593 279.57 445.95 294.668 474.398 310.104C502.845 325.546 514.285 332.507 512.068 322.414C509.851 312.32 502.612 286.375 518.523 266.964C534.434 247.554 548.183 239.377 545.752 212.306C543.322 185.235 529.907 252.603 536.753 255.042C543.594 257.475 539.052 262.96 537.171 266.808C535.291 270.651 555.901 287.102 542.601 294.863C529.302 302.624 493.079 275.136 471.472 273.448C449.865 271.754 465.912 294.121 475.749 252.288C485.581 210.455 502.674 160.197 505.484 154.646C508.294 149.094 481.399 161.124 506.249 179.912C500.158 203.175 481.393 297.32 484.309 334.413C487.225 371.506 492.749 340.39 444.841 323.771C396.933 307.152 396.284 301.475 403.172 279.98C410.06 258.486 416.887 238.731 433.264 207.153C449.64 175.576 457.146 160.637 474.405 151.284C491.664 141.931 504.601 143.731 507.043 136.426C509.491 129.121 513.032 115.768 513.032 115.768C513.032 115.768 529.84 114.521 534.464 106.866C539.093 99.2116 539.29 97.7684 539.29 97.7684C539.29 97.7684 509.915 87.6592 502.716 90.8648C502.088 99.6907 505.718 103.02 514.931 103.948C524.14 104.881 525.988 105.673 529.973 99.7336C533.959 93.7941 537.504 87.8391 541.062 85.509C544.62 83.1789 551.197 84.877 554.495 74.2703C557.792 63.6636 552.155 59.8204 539.038 55.2646C525.922 50.7035 508.467 53.809 504.266 46.5444C500.064 39.2799 504.957 9.58659 535.747 9.16318C566.536 8.73978 584.448 27.6947 582.447 46.0376C580.445 64.3804 570.146 76.7547 572.355 75.6766C574.564 74.5985 587.801 75.9743 577.967 91.409C568.133 106.844 563.951 98.9993 558.056 105.88C552.157 112.761 533.536 127.576 512.306 123.575C491.076 119.575 494.647 79.1005 495.427 73.7639C496.208 68.4274 505.149 27.2874 524.971 26.5883C544.788 25.8942 562.147 32.9362 565.578 49.0181C569.009 65.1054 565.578 79.1845 562.845 86.4778C560.111 93.771 556.854 122.219 557.155 125.712C557.456 129.205 538.91 126.755 512.85 150.859C520.956 157.983 527.601 169.406 528.787 168.582C529.972 167.757 551.448 142.613 564.154 139.032C579.237 148.891 601.879 168.752 606.219 176.169C610.56 183.586 612.459 224.557 600.24 257.016C590.014 284.185 569.927 330.986 575.562 372.767" fill="white"/>
<path d="M622.061 256.985C600.853 256.179 592.269 265.425 572.495 295.132C552.721 324.838 536.115 351.184 512.241 340.7C488.366 330.215 440.893 290.992 444.321 280.681C447.75 270.37 463.282 272.266 460.299 259.532C457.321 246.802 449.278 253.022 441.937 252.307C434.595 251.592 427.288 261.32 426.94 270.445C426.593 279.57 445.95 294.668 474.398 310.104C502.845 325.546 514.285 332.507 512.068 322.414C509.851 312.32 502.612 286.375 518.523 266.964C534.434 247.554 548.183 239.377 545.752 212.306C543.322 185.235 529.907 252.603 536.753 255.042C543.594 257.475 539.052 262.96 537.172 266.808C535.291 270.651 555.901 287.102 542.601 294.863C529.302 302.624 493.079 275.136 471.472 273.448C449.865 271.754 465.912 294.121 475.749 252.288C485.581 210.455 502.674 160.197 505.484 154.646C508.294 149.094 481.399 161.124 506.249 179.912C500.158 203.175 481.393 297.32 484.309 334.413C487.225 371.506 492.749 340.39 444.841 323.771C396.933 307.152 396.284 301.475 403.172 279.98C410.06 258.486 416.887 238.731 433.264 207.153C449.64 175.576 457.146 160.637 474.405 151.284C491.664 141.931 504.601 143.731 507.043 136.426C509.491 129.121 513.032 115.768 513.032 115.768C513.032 115.768 529.84 114.521 534.464 106.866C539.093 99.2116 539.29 97.7684 539.29 97.7684C539.29 97.7684 509.915 87.6592 502.716 90.8648C502.088 99.6907 505.718 103.02 514.931 103.948C524.14 104.881 525.988 105.673 529.973 99.7336C533.959 93.7941 537.504 87.8391 541.062 85.509C544.62 83.1789 551.197 84.877 554.495 74.2703C557.792 63.6636 552.155 59.8204 539.038 55.2646C525.922 50.7035 508.467 53.809 504.266 46.5444C500.064 39.2799 504.957 9.58659 535.747 9.16318C566.536 8.73978 584.448 27.6947 582.447 46.0376C580.445 64.3804 570.146 76.7547 572.355 75.6766C574.564 74.5985 587.801 75.9743 577.967 91.409C568.133 106.844 563.951 98.9993 558.056 105.88C552.157 112.761 533.536 127.576 512.306 123.575C491.076 119.575 494.647 79.1005 495.427 73.7639C496.208 68.4274 505.149 27.2874 524.971 26.5883C544.788 25.8942 562.147 32.9362 565.578 49.0181C569.009 65.1054 565.578 79.1845 562.845 86.4778C560.111 93.771 556.854 122.219 557.155 125.712C557.456 129.205 538.91 126.755 512.85 150.859C520.956 157.983 527.601 169.406 528.787 168.582C529.972 167.757 551.449 142.613 564.154 139.032C579.237 148.891 601.879 168.752 606.219 176.169C610.56 183.586 612.459 224.557 600.24 257.016C590.014 284.185 569.927 330.986 575.562 372.767" stroke="#5370A3" stroke-width="2" stroke-miterlimit="10" stroke-linejoin="round"/>
<path d="M207.734 398.405L466.908 401.917C487.652 402.2 504.065 419.601 503.189 440.39L498.061 562.254C497.203 582.623 480.045 598.444 459.73 597.583L320.096 591.669C305.332 591.046 291.631 599.333 285.294 612.718L282.979 617.607L281.002 611.874C276.331 598.336 264.279 588.73 250.075 587.229L191.711 581.054C171.464 578.913 156.797 560.696 158.971 540.401L170.64 431.383C172.662 412.436 188.735 398.15 207.734 398.405Z" fill="white" stroke="#00FFA2" stroke-width="2" stroke-miterlimit="10" stroke-linejoin="round"/>
<path d="M309.513 424.532C309.513 424.532 310.966 447.72 325.198 460.748C325.198 460.748 350.687 454.528 351.931 429.661C353.175 404.793 365.298 429.661 355.041 436.502C344.784 443.344 317.112 406.037 320.222 397.641C323.332 389.244 323.36 409.181 307.478 421.575C280.258 442.824 299.2 458.316 314.319 458.412C321.545 458.458 271.11 395.775 318.984 387.378C318.984 387.378 306.239 381.47 317.429 372.457C328.619 363.444 359.084 368.725 349.449 378.988C339.814 389.25 327.064 364.377 352.87 390.488C378.67 416.599 404.838 466.159 359.135 479.282C311.504 492.954 311.407 519.958 311.407 519.958C311.407 519.958 359.372 494.096 343.857 461.68" fill="white"/>
<path d="M309.513 424.532C309.513 424.532 310.966 447.72 325.198 460.748C325.198 460.748 350.687 454.528 351.931 429.661C353.175 404.793 365.298 429.661 355.041 436.502C344.784 443.344 317.112 406.037 320.222 397.641C323.332 389.244 323.36 409.181 307.478 421.575C280.258 442.824 299.2 458.316 314.319 458.412C321.545 458.458 271.11 395.775 318.984 387.378C318.984 387.378 306.239 381.47 317.429 372.457C328.619 363.444 359.084 368.725 349.449 378.988C339.814 389.25 327.064 364.377 352.87 390.488C378.67 416.599 404.838 466.159 359.135 479.282C311.504 492.954 311.407 519.958 311.407 519.958C311.407 519.958 359.372 494.096 343.857 461.68" stroke="#5370A3" stroke-width="2" stroke-miterlimit="10" stroke-linejoin="round"/>
<path d="M344.157 487.17C355.16 490.443 376.521 487.221 376.521 487.221C394.802 484.235 441.059 541.314 434.341 545.974C427.624 550.633 316.83 561.828 320.748 551.011C324.667 540.195 340.334 520.049 341.267 526.953C342.2 533.857 322.241 548.591 320.562 545.979C318.882 543.367 304.334 556.796 293.704 555.49C283.074 554.183 276.544 549.705 267.966 551.571C259.598 553.392 277.143 538.346 290.3 539.516C290.617 539.545 290.832 539.245 290.747 538.934C290.628 538.516 290.815 537.956 292.03 537.396C294.456 536.277 304.147 542.977 318.328 536.65C320.025 535.892 325.995 532.415 325.995 532.415" fill="white"/>
<path d="M344.157 487.17C355.16 490.443 376.521 487.221 376.521 487.221C394.802 484.235 441.059 541.314 434.341 545.974C427.624 550.633 316.83 561.828 320.748 551.011C324.667 540.195 340.334 520.049 341.267 526.953C342.2 533.857 322.241 548.591 320.562 545.979C318.882 543.367 304.334 556.796 293.704 555.49C283.074 554.183 276.544 549.705 267.966 551.571C259.598 553.392 277.143 538.346 290.3 539.516C290.617 539.545 290.832 539.245 290.747 538.934C290.628 538.516 290.815 537.956 292.03 537.396C294.456 536.277 304.147 542.977 318.328 536.65C320.025 535.892 325.995 532.415 325.995 532.415" stroke="#5370A3" stroke-width="2" stroke-miterlimit="10" stroke-linejoin="round"/>
<path d="M331.101 461.369C331.101 461.369 327.991 480.023 317.424 481.889C306.856 483.755 332.656 490.279 332.656 487.175C332.656 486.288 330.881 485.321 328.342 484.399C319.974 481.351 282.186 492.818 277.51 493.83C277.51 493.83 270.765 512.41 241.668 533.489C212.572 554.568 208.467 582.172 208.467 582.172" fill="white"/>
<path d="M331.101 461.369C331.101 461.369 327.991 480.023 317.424 481.889C306.856 483.755 332.656 490.279 332.656 487.175C332.656 486.288 330.881 485.321 328.342 484.399C319.974 481.351 282.186 492.818 277.51 493.83C277.51 493.83 270.765 512.41 241.668 533.489C212.572 554.568 208.467 582.172 208.467 582.172" stroke="#5370A3" stroke-width="2" stroke-miterlimit="10" stroke-linejoin="round"/>
<path d="M377.37 522.559C377.37 522.559 382.673 512.405 382.673 506.434C382.673 500.463 367.565 517.997 405.991 533.105C444.417 548.213 416.621 523.221 352.83 528.067" fill="white"/>
<path d="M377.37 522.559C377.37 522.559 382.673 512.405 382.673 506.434C382.673 500.463 367.565 517.997 405.991 533.105C444.417 548.213 416.621 523.221 352.83 528.067" stroke="#5370A3" stroke-width="2" stroke-miterlimit="10" stroke-linejoin="round"/>
<path d="M438.636 549.105H481.694" stroke="#5370A3" stroke-width="2" stroke-miterlimit="10" stroke-linejoin="round"/>
<path d="M172.458 549.105H214.538" stroke="#5370A3" stroke-width="2" stroke-miterlimit="10" stroke-linejoin="round"/>
<path d="M1 318.77V128.654C1 108.971 17.3786 92.8469 38.0069 92.2143L296.888 84.3143C317.975 83.6714 335.621 99.4406 336.316 119.551L343.106 315.648C343.818 336.242 326.507 353.307 304.897 353.307L101.984 355.473C84.5379 355.658 68.0299 363.023 56.6991 375.675L48.1889 385.18L49.4671 368.506C50.001 361.562 44.4516 355.55 37.1602 355.174C16.8825 354.125 1 338.14 1 318.77Z" fill="white" stroke="#00FFA2" stroke-width="2" stroke-miterlimit="10" stroke-linejoin="round"/>
<path d="M107.702 122.516C106.797 121.298 105.882 119.71 104.931 117.639C98.4549 103.509 105.975 76.9814 112.174 73.0391C118.372 69.0916 132.836 78.2973 147.485 74.7301C162.139 71.1578 155.565 79.6131 155.565 79.6131C166.457 79.6131 185.804 63.0829 184.113 78.1122C182.977 88.2277 178.603 94.7709 174.778 98.1376C172.923 99.7721 171.196 100.656 170.029 100.841C166.457 101.401 172.471 94.077 174.722 98.0193C174.742 98.0553 174.763 98.0964 174.778 98.1376C176.901 102.507 172.825 130.884 170.78 129.954C170.26 129.718 169.464 126.942 168.636 123.2C168.636 123.2 168.636 123.2 168.636 123.195C166.205 112.103 163.558 92.5247 167.207 105.159C168.503 109.636 168.888 116.097 168.636 123.195C168.636 123.2 168.636 123.2 168.636 123.2C167.937 142.917 162.324 167.532 157.631 168.087C151.242 168.838 144.103 164.705 129.079 158.882C114.05 153.058 115.931 138.784 115.931 138.784C111.346 138.06 107.964 128.772 107.702 122.516C107.558 119.026 108.38 116.477 110.503 116.873C112.482 117.243 115.16 122.624 116.856 126.521C117.833 128.777 118.485 130.53 118.485 130.53" fill="white"/>
<path d="M107.702 122.516C106.797 121.298 105.882 119.71 104.931 117.639C98.4549 103.509 105.975 76.9814 112.174 73.0391C118.372 69.0916 132.836 78.2973 147.485 74.7301C162.139 71.1578 155.565 79.6131 155.565 79.6131C166.457 79.6131 185.804 63.0829 184.113 78.1122C182.977 88.2277 178.603 94.7709 174.778 98.1376C172.923 99.7721 171.196 100.656 170.029 100.841C166.457 101.401 172.471 94.077 174.722 98.0193C174.742 98.0553 174.763 98.0964 174.778 98.1376C176.901 102.507 172.825 130.884 170.78 129.954C170.26 129.718 169.464 126.942 168.636 123.2C168.636 123.2 168.636 123.2 168.636 123.195C166.205 112.103 163.558 92.5247 167.207 105.159C168.503 109.636 168.888 116.097 168.636 123.195C168.636 123.2 168.636 123.2 168.636 123.2C167.937 142.917 162.324 167.532 157.631 168.087C151.242 168.838 144.103 164.705 129.079 158.882C114.05 153.058 115.931 138.784 115.931 138.784C111.346 138.06 107.964 128.772 107.702 122.516ZM107.702 122.516C107.558 119.026 108.38 116.477 110.503 116.873C112.482 117.243 115.16 122.624 116.856 126.521C117.833 128.777 118.485 130.53 118.485 130.53" stroke="#5370A3" stroke-width="2" stroke-miterlimit="10" stroke-linejoin="round"/>
<path d="M156.932 103.093C153.745 103.082 137.924 104.033 126.75 98.1377C122.258 95.7681 127.799 113.984 127.799 113.984C124.941 116.086 126.123 120.959 126.971 124.475C127.639 127.225 128.097 129.142 126.252 128.253C125.198 127.744 124.201 127.384 123.25 127.127C120.849 126.485 118.763 126.51 116.856 126.521" fill="white"/>
<path d="M156.932 103.093C153.745 103.082 137.924 104.033 126.75 98.1377C122.258 95.7681 127.799 113.984 127.799 113.984C124.941 116.086 126.123 120.959 126.971 124.475C127.639 127.225 128.097 129.142 126.252 128.253C125.198 127.744 124.201 127.384 123.25 127.127C120.849 126.485 118.763 126.51 116.856 126.521" stroke="#5370A3" stroke-width="2" stroke-miterlimit="10" stroke-linejoin="round"/>
<path d="M122.391 159.529C122.391 159.529 123.794 174.101 120.428 181.102C117.066 188.108 141.723 195.391 150.97 186.427C160.216 177.463 141.162 173.258 138.084 173.541C135 173.824 144.246 182.228 162.18 170.457C180.113 158.692 236.149 250.872 236.149 250.872" fill="white"/>
<path d="M122.391 159.529C122.391 159.529 123.794 174.101 120.428 181.102C117.066 188.108 141.723 195.391 150.97 186.427C160.216 177.463 141.162 173.258 138.084 173.541C135 173.824 144.246 182.228 162.18 170.457C180.113 158.692 236.149 250.872 236.149 250.872" stroke="#5370A3" stroke-width="2" stroke-miterlimit="10" stroke-linejoin="round"/>
<path d="M140.048 285.577C140.048 285.577 122.675 234.059 109.789 223.414L120.125 203.24C120.125 203.24 107.83 195.396 103.908 194.836C99.9867 194.276 118.48 172.143 118.48 172.143C118.48 172.143 96.0649 186.432 84.8597 186.432C73.6546 186.432 62.1668 202.685 62.1668 210.528C62.1668 218.372 37.5 272.444 27.1327 282.534C16.7654 292.624 13.1211 346.974 131.644 320.077C131.644 320.077 141.168 312.51 140.048 294.017C138.927 275.523 122.397 313.071 131.084 315.029C139.77 316.993 139.21 290.655 121.276 288.409C103.343 286.168 73.0841 277.127 57.6744 285.572C42.2648 294.012 79.2469 291.21 84.8546 272.162C90.4572 253.108 99.8685 234.337 102.449 225.372C105.029 216.408 107.27 194.831 83.4565 191.752" fill="white"/>
<path d="M140.048 285.577C140.048 285.577 122.675 234.059 109.789 223.414L120.125 203.24C120.125 203.24 107.83 195.396 103.908 194.836C99.9867 194.276 118.48 172.143 118.48 172.143C118.48 172.143 96.0649 186.432 84.8597 186.432C73.6546 186.432 62.1668 202.685 62.1668 210.528C62.1668 218.372 37.5 272.444 27.1327 282.534C16.7654 292.624 13.1211 346.974 131.644 320.077C131.644 320.077 141.168 312.51 140.048 294.017C138.927 275.523 122.397 313.071 131.084 315.029C139.77 316.993 139.21 290.655 121.276 288.409C103.343 286.168 73.0841 277.127 57.6744 285.572C42.2648 294.012 79.2469 291.21 84.8546 272.162C90.4572 253.108 99.8685 234.337 102.449 225.372C105.029 216.408 107.27 194.831 83.4565 191.752" stroke="#5370A3" stroke-width="2" stroke-miterlimit="10" stroke-linejoin="round"/>
<path d="M160.993 179.853C160.993 179.853 174.552 194.24 180.36 197.005L168.461 215.545C168.461 215.545 175.102 228.827 180.36 232.425L162.633 286.363C162.37 287.165 161.178 286.96 161.209 286.112C161.795 269.777 162.951 219.122 156.29 189.259C156.29 189.259 145.331 196.363 133.823 194.666C133.823 194.666 142.319 204.885 145.326 205.198C148.333 205.517 148.205 195.972 148.205 195.972C148.205 195.972 140.361 219.282 144.411 285.577C144.411 285.577 147.68 293.436 151.864 293.827C156.048 294.217 156.439 282.19 156.439 282.19C156.439 282.19 155.395 223.882 141.014 207.804" fill="white"/>
<path d="M160.993 179.853C160.993 179.853 174.552 194.24 180.36 197.005L168.461 215.545C168.461 215.545 175.102 228.827 180.36 232.425L162.633 286.363C162.37 287.165 161.178 286.96 161.209 286.112C161.795 269.777 162.951 219.122 156.29 189.259C156.29 189.259 145.331 196.363 133.823 194.666C133.823 194.666 142.319 204.885 145.326 205.198C148.333 205.517 148.205 195.972 148.205 195.972C148.205 195.972 140.361 219.282 144.411 285.577C144.411 285.577 147.68 293.436 151.864 293.827C156.048 294.217 156.439 282.19 156.439 282.19C156.439 282.19 155.395 223.882 141.014 207.804" stroke="#5370A3" stroke-width="2" stroke-miterlimit="10" stroke-linejoin="round"/>
<path d="M143.244 299.229C143.244 299.229 156.655 297.677 163.033 293.837C169.412 289.997 194.253 310.223 202.611 311.102C210.969 311.981 178.206 323.418 166.112 317.481C154.018 311.544 143.244 313.081 143.244 313.081" fill="white"/>
<path d="M143.244 299.229C143.244 299.229 156.655 297.677 163.033 293.837C169.412 289.997 194.253 310.223 202.611 311.102C210.969 311.981 178.206 323.418 166.112 317.481C154.018 311.544 143.244 313.081 143.244 313.081" stroke="#5370A3" stroke-width="2" stroke-miterlimit="10" stroke-linejoin="round"/>
<path d="M158.798 319.182C158.798 319.182 104.371 328.167 104.371 330.12C104.371 332.073 195.297 336.314 195.297 336.314C195.297 336.314 340.326 331.749 343.256 330.12C346.191 328.491 376.172 236.912 374.867 233.324C373.561 229.742 249.719 230.065 245.807 233.324C241.896 236.583 200.18 330.444 200.18 330.444" fill="white"/>
<path d="M158.798 319.182C158.798 319.182 104.371 328.167 104.371 330.12C104.371 332.073 195.297 336.314 195.297 336.314C195.297 336.314 340.326 331.749 343.256 330.12C346.191 328.491 376.172 236.912 374.867 233.324C373.561 229.742 249.719 230.065 245.807 233.324C241.896 236.583 200.18 330.444 200.18 330.444" stroke="#5370A3" stroke-width="2" stroke-miterlimit="10" stroke-linejoin="round"/>
<path d="M196.469 302.75C196.469 302.75 191.689 225.552 188.682 213.509C185.67 201.472 183.717 246.421 217.569 283.531" fill="white"/>
<path d="M196.469 302.75C196.469 302.75 191.689 225.552 188.682 213.509C185.67 201.472 183.717 246.421 217.569 283.531" stroke="#5370A3" stroke-width="2" stroke-miterlimit="10" stroke-linejoin="round"/>
</svg>
