<svg width="482" height="321" viewBox="0 0 482 321" fill="none" xmlns="http://www.w3.org/2000/svg">
<path d="M479.273 307.907C467.938 298.834 456.609 290.486 445.274 282.852C455.239 271.34 457.605 257.604 457.605 247.279V244.48C457.605 214.864 437.492 202.358 422.702 197.169C432.759 192.699 448.096 182.224 448.096 159.925V157.078C448.096 138.931 438.722 108.504 375.918 108.504H364.166C381.777 84.6255 386.83 63.0462 382.687 45.6194C374.499 11.2386 331.397 -5.95183 272.877 2.00948C246.298 5.62484 223.054 12.8018 202.838 22.1437C192.597 12.3936 174.574 4.95334 143.538 4.95334H1.68425C0.763616 4.96408 0.0162756 5.70542 2.90384e-05 6.61866V200.602C-0.00538647 201.52 0.74737 202.267 1.67342 202.272C1.67884 202.272 1.67884 202.272 1.68425 202.272H144.313C214.714 202.272 225.226 165.619 225.226 143.718V140.919C225.226 111.303 205.113 98.7969 190.323 93.6075C200.379 89.138 215.667 78.668 215.667 56.3634V53.5216C215.738 46.8765 214.335 40.2957 211.573 34.2415C231.714 25.3616 253.029 19.3933 274.875 16.5139C325.299 9.69682 362.027 22.4231 368.352 49.0145C372.219 65.3132 364.984 85.8557 345.326 108.515H234.102C233.159 108.509 232.39 109.251 232.369 110.186V188.918C221.765 194.29 210.512 199.662 198.603 205.034C119.645 205.259 60.5725 228.418 42.3223 243.814C32.2223 252.345 33.7657 258.979 35.6341 262.186C38.0007 266.339 44.326 277.4 108.494 255.74C143.901 243.825 175.3 231.566 203.017 219.312C212.348 219.398 222.177 219.807 232.369 220.618V304.179C232.369 305.103 233.132 305.855 234.064 305.85C234.075 305.85 234.091 305.85 234.102 305.85H376.681C403.396 305.85 421.506 300.569 433.658 292.758C445.718 300.747 457.822 309.594 469.974 319.301C471.29 320.349 472.931 320.913 474.616 320.913C476.841 320.929 478.953 319.941 480.351 318.227C482.918 315.079 482.436 310.465 479.273 307.907ZM208.389 53.5216V56.3634C208.389 79.6134 187.361 88.7351 176.21 90.3145L163.787 92.0711C162.947 92.1947 162.314 92.8984 162.287 93.7418C162.287 94.5798 162.904 95.2943 163.743 95.4125L176.167 97.4915C188.682 99.5651 217.899 107.961 217.899 140.919V143.718C217.899 162.901 208.34 195.047 144.313 195.047H7.30014V12.2324H143.538C170.161 12.2324 186.045 17.9643 195.462 25.6624C199.432 28.8319 202.638 32.8394 204.836 37.4002C207.241 42.4338 208.459 47.9509 208.389 53.5216ZM103.761 241.907C74.6366 251.7 59.8956 253.87 52.8554 254.096C61.3253 247.596 82.6678 236.535 117.208 228.45C131.315 225.173 145.618 222.793 160.034 221.321C142.45 228.273 123.696 235.133 103.761 241.907ZM239.691 115.772H375.907C432.342 115.772 440.758 141.639 440.758 157.078V159.925C440.758 183.175 419.735 192.291 408.627 193.871L396.172 195.633C395.24 195.767 394.596 196.626 394.731 197.55C394.84 198.276 395.397 198.845 396.123 198.974L408.546 201.048C421.11 203.127 450.327 211.523 450.327 244.48V247.279C450.327 256.411 448.161 268.493 438.954 278.651C425.215 269.621 410.994 261.338 396.356 253.822C398.679 250.094 399.914 245.791 399.909 241.407V240.371C399.909 232.56 396.356 219.377 372.327 219.377H307.78C285.468 213.392 262.696 209.261 239.696 207.021V201.918C256.625 193.323 271.826 184.808 285.435 176.32V187.655C285.435 188.601 286.21 189.369 287.163 189.369H368.174C389.516 189.369 392.7 176.686 392.7 169.1V168.601C392.7 162.46 390.291 148.106 368.174 148.106H287.163C286.21 148.106 285.435 148.875 285.435 149.82V158.448C271.962 167.295 256.717 176.191 239.696 185.125L239.691 115.772ZM392.625 241.407C392.717 244.668 391.747 247.87 389.852 250.54C371.163 241.198 351.819 233.21 331.971 226.645H372.289C390.496 226.645 392.587 234.499 392.587 240.371L392.625 241.407ZM292.763 230.336C319.185 236.68 344.914 245.587 369.582 256.927H292.763V230.336ZM315.974 155.353H368.174C379.774 155.353 385.373 159.689 385.373 168.579V169.079C385.373 174.676 383.597 182.079 368.174 182.079H292.763V171.604C301.135 166.151 308.874 160.741 315.974 155.364V155.353ZM376.681 298.592H239.696V221.321C255.071 222.874 270.342 225.318 285.435 228.633V262.476C285.435 263.422 286.21 264.19 287.163 264.19H372.311C375.745 264.228 379.167 263.846 382.508 263.062C397.704 270.615 412.451 279.011 426.694 288.208C415.684 294.451 399.708 298.603 376.681 298.603V298.592Z" fill="#5370A3"/>
<path d="M115.729 115.821C122.889 105.141 130.914 95.0524 139.72 85.6621C157.012 84.2171 160.153 73.3388 160.337 66.2047V65.0336C160.337 61.6922 159.606 55.9012 155.42 51.3511C151.873 47.5155 145.91 44.5341 135.805 44.5341H54.7453C53.803 44.5555 53.0556 45.3184 53.0611 46.2531V84.0828C53.0556 85.0121 53.8084 85.7749 54.7453 85.7964H120.1C112.106 95.2458 104.85 105.281 98.3889 115.821H54.7453C53.8138 115.842 53.0719 116.6 53.0719 117.523V158.92C53.0665 159.85 53.8192 160.612 54.7561 160.634H139.893C165.52 160.634 167.513 143.212 167.513 137.84V136.863C167.513 129.003 163.917 115.826 139.893 115.826L115.729 115.821ZM60.3883 78.5281V51.8024H135.799C142.352 51.8024 146.993 53.2045 149.771 56.0033C141.486 62.9815 133.687 70.5077 126.425 78.5281H60.3883ZM160.191 136.863V137.857C160.191 144.942 156.687 153.382 139.893 153.382H60.3883V123.094H94.1106C88.2402 133.43 85.5596 140.156 85.4458 140.43C83.9187 144.174 85.7437 148.434 89.5183 149.949C93.2929 151.464 97.5874 149.653 99.1146 145.909C99.1417 145.845 99.1687 145.78 99.1904 145.716C99.3258 145.399 102.981 136.368 111.067 123.1H139.872C158.1 123.089 160.191 130.953 160.191 136.863Z" fill="#5370A3"/>
</svg>
