<svg width="1386" height="385" viewBox="0 0 1386 385" fill="none" xmlns="http://www.w3.org/2000/svg">
<path d="M471.321 305.109C460.175 296.115 449.033 287.841 437.887 280.274C447.686 268.864 450.013 255.248 450.013 245.014V242.24C450.013 212.885 430.234 200.489 415.689 195.346C425.579 190.916 440.661 180.533 440.661 158.43V155.608C440.661 137.621 431.443 107.462 369.681 107.462H358.124C375.443 83.794 380.412 62.4048 376.338 45.1315C368.286 11.0537 325.899 -5.98529 268.35 1.90587C242.211 5.48937 219.353 12.6031 199.473 21.8627C189.402 12.1985 171.678 4.82379 141.157 4.82379H1.65631C0.750947 4.83444 0.0160055 5.56924 2.85566e-05 6.47444V198.748C-0.00529711 199.659 0.73497 200.399 1.64566 200.404C1.65098 200.404 1.65098 200.404 1.65631 200.404H141.918C211.152 200.404 221.489 164.074 221.489 142.365V139.591C221.489 110.236 201.71 97.8405 187.165 92.6968C197.055 88.2667 212.089 77.8889 212.089 55.7809V52.9641C212.158 46.3775 210.779 39.8548 208.063 33.8539C227.869 25.0522 248.831 19.1365 270.315 16.2825C319.902 9.52547 356.021 22.1396 362.241 48.4967C366.043 64.6518 358.928 85.0133 339.596 107.473H230.218C229.291 107.467 228.535 108.202 228.514 109.129V187.167C218.086 192.492 207.019 197.816 195.308 203.141C117.66 203.365 59.5676 226.319 41.6201 241.58C31.6877 250.036 33.2055 256.611 35.0429 259.79C37.3702 263.906 43.5906 274.87 106.694 253.401C141.514 241.591 172.392 229.44 199.648 217.294C208.825 217.379 218.491 217.784 228.514 218.588V301.413C228.514 302.329 229.264 303.075 230.18 303.069C230.191 303.069 230.207 303.069 230.218 303.069H370.432C396.703 303.069 414.512 297.835 426.463 290.093C438.323 298.011 450.226 306.781 462.177 316.402C463.471 317.441 465.085 318 466.741 318C468.93 318.016 471.007 317.036 472.381 315.337C474.905 312.217 474.431 307.643 471.321 305.109ZM204.932 52.9641V55.7809C204.932 78.8261 184.252 87.8674 173.286 89.4328L161.069 91.174C160.244 91.2964 159.621 91.994 159.594 92.8299C159.594 93.6606 160.201 94.3688 161.027 94.4859L173.244 96.5466C185.551 98.6019 214.283 106.924 214.283 139.591V142.365C214.283 161.38 204.884 193.243 141.918 193.243H7.17902V12.0387H141.157C167.338 12.0387 182.958 17.7201 192.219 25.3504C196.123 28.492 199.276 32.4642 201.438 36.9848C203.802 41.974 205.001 47.4425 204.932 52.9641ZM102.04 239.69C73.3983 249.397 58.9019 251.548 51.9785 251.771C60.3078 245.329 81.2963 234.365 115.263 226.351C129.137 223.103 143.202 220.745 157.379 219.286C140.086 226.176 121.643 232.975 102.04 239.69ZM235.714 114.666H369.67C425.169 114.666 433.445 140.305 433.445 155.608V158.43C433.445 181.475 412.771 190.511 401.848 192.076L389.599 193.823C388.683 193.956 388.049 194.808 388.182 195.724C388.289 196.443 388.837 197.007 389.551 197.135L401.768 199.19C414.124 201.251 442.855 209.573 442.855 242.24V245.014C442.855 254.066 440.725 266.041 431.672 276.11C418.16 267.16 404.175 258.949 389.78 251.5C392.065 247.804 393.279 243.539 393.274 239.195V238.167C393.274 230.425 389.78 217.358 366.15 217.358H302.673C280.732 211.426 258.337 207.332 235.719 205.111V200.053C252.367 191.533 267.316 183.094 280.7 174.681V185.916C280.7 186.853 281.461 187.614 282.399 187.614H362.065C383.054 187.614 386.185 175.043 386.185 167.524V167.029C386.185 160.943 383.815 146.716 362.065 146.716H282.399C281.461 146.716 280.7 147.477 280.7 148.414V156.966C267.449 165.735 252.458 174.553 235.719 183.408L235.714 114.666ZM386.111 239.195C386.201 242.427 385.248 245.6 383.384 248.246C365.005 238.987 345.982 231.069 326.463 224.562H366.113C384.018 224.562 386.073 232.347 386.073 238.167L386.111 239.195ZM287.905 228.22C313.889 234.509 339.191 243.337 363.45 254.577H287.905V228.22ZM310.731 153.899H362.065C373.473 153.899 378.979 158.196 378.979 167.008V167.503C378.979 173.051 377.233 180.389 362.065 180.389H287.905V170.006C296.139 164.601 303.749 159.239 310.731 153.909V153.899ZM370.432 295.876H235.719V219.286C250.839 220.824 265.857 223.247 280.7 226.532V260.078C280.7 261.015 281.461 261.776 282.399 261.776H366.134C369.51 261.814 372.876 261.436 376.162 260.658C391.106 268.145 405.608 276.467 419.614 285.583C408.787 291.77 393.077 295.886 370.432 295.886V295.876Z" fill="#5370A3" fill-opacity="0.1"/>
<path d="M113.809 114.714C120.85 104.129 128.743 94.1289 137.402 84.8213C154.407 83.389 157.496 72.6066 157.677 65.5354V64.3746C157.677 61.0627 156.958 55.3227 152.841 50.8127C149.353 47.0109 143.489 44.0557 133.552 44.0557H53.8371C52.9104 44.077 52.1755 44.8331 52.1808 45.7596V83.2559C52.1755 84.1771 52.9158 84.9332 53.8371 84.9545H118.107C110.247 94.3206 103.11 104.267 96.7566 114.714H53.8371C52.9211 114.735 52.1915 115.486 52.1915 116.402V157.434C52.1861 158.355 52.9264 159.111 53.8477 159.132H137.573C162.774 159.132 164.733 141.865 164.733 136.54V135.571C164.733 127.781 161.197 114.719 137.573 114.719L113.809 114.714ZM59.3864 77.7502V51.2599H133.546C139.99 51.2599 144.554 52.6497 147.287 55.4238C139.138 62.3406 131.469 69.8004 124.328 77.7502H59.3864ZM157.533 135.571V136.556C157.533 143.579 154.087 151.944 137.573 151.944H59.3864V121.924H92.5493C86.7763 132.168 84.1401 138.835 84.0283 139.106C82.5264 142.818 84.3212 147.04 88.0332 148.542C91.7452 150.043 95.9684 148.249 97.4703 144.538C97.4969 144.474 97.5235 144.41 97.5448 144.346C97.678 144.032 101.273 135.081 109.224 121.929H137.551C155.477 121.918 157.533 129.714 157.533 135.571Z" fill="#5370A3" fill-opacity="0.1"/>
<path d="M428 282.999C466.5 309.5 543.501 366.066 577.5 374.5C642 390.501 665 313.999 583.5 259.999C502 205.999 546.5 490.999 904.5 282.999C1190.9 116.599 1369.5 269.666 1423 366.999" stroke="#EEF1F6" stroke-width="16"/>
</svg>
