<svg width="85" height="70" viewBox="0 0 85 70" fill="none" xmlns="http://www.w3.org/2000/svg">
<path d="M7.21044 8.62947C0.389915 12.9627 1.43277 48.0842 13.4616 47.7905C28.9366 47.4129 41.1332 44.4522 43.9681 60.131C46.9169 76.4271 54.7803 59.4957 55.2118 51.003C55.4336 46.6278 67.6721 51.1828 74.2469 46.3521C80.2344 41.9529 89.1945 11.4584 72.0593 6.61568C54.6184 1.69508 16.8539 2.50419 7.21044 8.62947Z" stroke="#5370A3" stroke-width="6" stroke-miterlimit="10"/>
<path d="M37.4893 48.27C37.4893 48.27 38.658 39.9332 44.6574 39.7654C50.6628 39.5975 55.943 37.0503 55.943 35.9895C55.943 35.9895 63.0033 32.825 63.3329 19.9511C63.6626 7.0772 45.4306 9.05503 46.7671 21.7311C48.1036 34.4072 55.943 35.9895 55.943 35.9895C55.943 35.9895 60.6778 39.2619 63.3389 39.7654C66 40.2628 69.8358 44.1046 69.8358 49.0252" stroke="#5370A3" stroke-width="6" stroke-miterlimit="10" stroke-linejoin="round"/>
</svg>
