<svg width="71" height="66" viewBox="0 0 71 66" fill="none" xmlns="http://www.w3.org/2000/svg">
<path d="M7.23205 5.79513C3.56902 8.94777 -0.0995611 42.6443 7.23205 45.0199C14.5637 47.3955 29.5765 43.5879 30.964 47.1513C32.3516 50.7202 32.3516 52.3631 30.964 52.7628C29.5765 53.1568 13.326 56.0542 13.5258 58.0468C13.7256 60.0394 17.0945 62.809 35.5262 62.809C53.9579 62.809 59.1083 60.6277 59.1083 58.846C59.1083 57.4085 47.0925 54.328 42.4638 53.1957C41.2261 52.8904 40.2881 51.8913 40.0606 50.6369C39.8275 49.3437 39.833 47.784 40.8709 46.957C42.8523 45.3696 63.4318 47.29 64.8193 45.3085C66.2068 43.327 69.3759 13.5435 64.8193 8.14296C60.2627 2.73685 12.7765 1.01623 7.23205 5.79513Z" stroke="#5370A3" stroke-width="6" stroke-miterlimit="10"/>
<path d="M29.2103 32.8478L41.387 30.2391L28.7996 13.0606L29.2103 32.8478Z" stroke="#5370A3" stroke-width="6" stroke-miterlimit="10" stroke-linejoin="round"/>
<path d="M38.4344 39.3475L35.0933 30.5223" stroke="#5370A3" stroke-width="6" stroke-miterlimit="10" stroke-linejoin="round"/>
</svg>
