<svg width="70" height="66" viewBox="0 0 70 66" fill="none" xmlns="http://www.w3.org/2000/svg">
<path d="M13.0769 64.3439C13.0769 64.3439 15.0083 50.54 24.9484 50.268C34.883 49.9905 43.6243 45.7722 43.6243 44.0183C43.6243 44.0183 55.3072 38.7787 55.8622 17.4706C56.4116 -3.83741 26.2305 -0.562669 28.4394 20.4124C30.6483 41.3874 43.6243 44.0183 43.6243 44.0183C43.6243 44.0183 51.461 49.441 55.8677 50.268C60.2745 51.0951 66.6237 57.4558 66.6237 65.5927" stroke="#5370A3" stroke-width="6" stroke-miterlimit="10"/>
<path d="M1 18.0535C1 18.0535 10.0188 19.4522 18.2606 18.0535" stroke="#5370A3" stroke-width="6" stroke-miterlimit="10"/>
<path d="M10.252 10.0442C10.252 10.0442 8.85329 19.0636 10.252 27.306" stroke="#5370A3" stroke-width="6" stroke-miterlimit="10"/>
</svg>
