<svg width="77" height="63" viewBox="0 0 77 63" fill="none" xmlns="http://www.w3.org/2000/svg">
<path d="M6.77244 7.67396C0.661432 11.5564 1.5958 43.0244 12.3733 42.7612C26.2385 42.4229 37.1664 39.7702 39.7064 53.818C42.3484 68.4189 49.3938 53.2488 49.7804 45.6395C49.9791 41.7195 60.9445 45.8006 66.8354 41.4724C72.2 37.5309 80.228 10.2086 64.8753 5.86966C49.2434 1.46093 15.4127 2.18587 6.77244 7.67396Z" stroke="#5370A3" stroke-width="6" stroke-miterlimit="10"/>
<path d="M15.4127 16.0404C19.3543 15.5196 23.5106 15.1114 27.8603 14.859C39.9964 14.1502 51.0048 14.7946 60.5579 16.0404" stroke="#5370A3" stroke-width="6" stroke-miterlimit="10"/>
<path d="M35.7057 26.2324C38.2672 26.0767 40.9683 25.9908 43.7982 26.0123C49.3723 26.0499 54.4952 26.4848 59.0919 27.1131" stroke="#5370A3" stroke-width="6" stroke-miterlimit="10"/>
</svg>
