<svg width="59" height="71" viewBox="0 0 59 71" fill="none" xmlns="http://www.w3.org/2000/svg">
<path d="M4.54097 11.5404C4.54097 11.5404 1.07379 38.7247 4.54097 47.6518C8.00814 56.5788 29.8042 67 29.8042 67C29.8042 67 54.5735 57.5731 55.5611 41.7022C56.5486 25.8313 55.5611 11.5404 55.5611 11.5404C40.6995 10.5462 29.4982 4 29.4982 4C29.4982 4 20.8893 8.56296 4.54097 11.5404Z" stroke="#5370A3" stroke-width="6" stroke-miterlimit="10"/>
<path d="M19.0001 38.4957C19.0001 38.4957 18.8993 50.8693 26.0946 50.8693C29.7585 50.9125 35.9569 51.7482 39.2019 48.5725C42.0121 45.8228 40.9623 39.4123 39.8435 35.7999C39.5307 34.7809 38.5974 34.1016 37.5476 34.1231C33.7405 34.2148 23.4964 34.6785 23.1677 33.7943C22.7488 32.6674 22.998 21.027 28.5655 21.0001C35.4426 20.9677 34.7851 31.8695 34.7851 31.8695" stroke="#5370A3" stroke-width="6" stroke-miterlimit="10"/>
</svg>
