<svg width="48" height="48" viewBox="0 0 48 48" fill="none" xmlns="http://www.w3.org/2000/svg">
<path d="M23.9611 47.9613C23.4867 47.9613 23.0124 47.9842 22.5399 47.9556C21.743 47.9099 20.9195 47.9442 20.1605 47.7442C18.9651 47.4281 17.7242 47.3196 16.5592 46.8358C15.2518 46.2912 13.307 45.6075 12.1021 44.7677C11.6733 44.4687 11.1553 44.3087 10.7245 43.9736C9.98455 43.4003 9.17055 42.9281 8.49126 42.2691C7.98275 41.774 7.40213 41.3531 6.905 40.8466C5.59957 39.5211 4.54269 37.9919 3.49151 36.4665C2.84828 35.5352 1.17664 31.9303 1.03244 30.9381C0.880641 29.8964 0.370228 28.9309 0.425253 27.8549C0.00591941 27.3674 0.317099 26.7446 0.110278 26.1809C-0.0946455 25.6229 0.0495605 24.9355 0.0457656 24.3032C0.0419707 23.7014 0.022998 23.0977 0.053357 22.4979C0.0742288 22.1094 0.165306 21.7247 0.237409 21.34C0.303819 20.9858 0.0590477 20.5763 0.425253 20.2773C0.328484 19.4985 0.649152 18.7919 0.812332 18.0587C1.00967 17.1694 1.31136 16.3086 1.61115 15.4459C1.88249 14.6651 2.30561 13.9624 2.60161 13.1931C2.92418 12.3494 3.48202 11.5896 3.98105 10.8221C4.64705 9.79754 5.37757 8.8225 6.24849 7.95601C6.59382 7.61131 6.8348 7.15426 7.201 6.84004C8.29013 5.90118 9.347 4.92042 10.5158 4.0844C11.161 3.62354 11.863 3.23124 12.5745 2.87893C13.2804 2.52852 13.9768 2.16478 14.7187 1.87341C15.3922 1.61061 16.0829 1.33447 16.7603 1.085C17.3542 0.865997 17.9917 0.686985 18.635 0.555583C19.6292 0.351814 20.6595 0.353718 21.6291 0.0185475C21.743 -0.0195401 21.8796 0.0128343 22.0067 0.0128343C23.3653 0.0128343 24.7238 0.00140804 26.0824 0.0223562C26.405 0.0280694 26.7237 0.144237 27.0463 0.203272C27.3689 0.260404 27.6952 0.11948 28.0273 0.367049C28.2683 0.546061 28.7104 0.235647 28.9741 0.584149C30.0443 0.5632 31.0006 1.00311 31.974 1.35161C33.5204 1.90579 35.0099 2.57232 36.4178 3.45405C37.3798 4.05774 38.2507 4.78712 39.2241 5.36605C39.3815 5.45936 39.4954 5.62885 39.6301 5.76406C40.188 6.32395 40.7287 6.90479 41.3093 7.44182C42.5522 8.59397 43.5085 9.97655 44.4079 11.3896C45.0359 12.378 45.6393 13.4159 46.0302 14.5128C46.4931 15.8097 47.1003 17.0628 47.2996 18.4644C47.3944 19.1385 47.5348 19.826 47.6866 20.4887C47.8802 21.3343 47.7606 22.1589 47.8403 22.9854C47.8688 23.2825 47.7379 23.5929 47.9845 23.8842C48.0566 23.968 47.8536 24.2499 47.8441 24.446C47.8214 24.9526 47.81 25.4611 47.8441 25.9657C47.8859 26.5885 47.7075 27.1826 47.6601 27.7901C47.6145 28.3672 47.4039 28.8947 47.2958 29.4431C47.1231 30.3211 46.8594 31.1609 46.5823 32.0045C46.1877 33.21 45.6374 34.3412 45.0397 35.4534C44.387 36.6684 43.6052 37.79 42.7723 38.8908C41.8938 40.0505 40.8293 41.0199 39.7971 42.0139C38.6491 43.1204 37.3551 44.0554 35.9263 44.7867C35.507 45.0019 35.1123 45.2628 34.6968 45.4818C33.4748 46.1217 32.1827 46.5864 30.8734 47.0072C29.9911 47.291 29.0917 47.4605 28.1772 47.6166C27.5036 47.7309 26.8167 47.7937 26.1412 47.9271C25.4354 48.068 24.6878 47.9613 23.9611 47.9613ZM20.5248 32.6958C20.5248 34.882 20.5229 37.0683 20.5248 39.2564C20.5248 39.7763 20.5305 39.7801 21.003 39.782C22.519 39.7839 24.0351 39.7839 25.5511 39.782C26.0141 39.782 26.0217 39.7763 26.0217 39.3459C26.0236 37.0968 26.0236 34.8459 26.0236 32.5968C26.0236 30.5362 26.0198 28.4776 26.0255 26.4171C26.0274 25.7848 26.1014 25.7105 26.7124 25.7067C27.8812 25.701 29.05 25.7067 30.2188 25.7048C30.6818 25.7048 30.9266 25.4954 30.9512 25.0402C30.9797 24.5222 30.9949 24.0176 31.1182 23.4977C31.2871 22.7892 31.2719 22.0351 31.3345 21.3019C31.3421 21.2105 31.3345 21.1134 31.3573 21.0258C31.5148 20.384 31.5167 20.384 30.9512 20.3802C30.7292 20.3783 30.5091 20.3802 30.2871 20.3802C29.0557 20.3802 27.8243 20.384 26.5928 20.3783C26.183 20.3764 26.0426 20.2335 26.0274 19.8317C26.016 19.5156 26.054 19.1957 26.0198 18.8814C25.8965 17.754 26.2285 16.6552 26.2171 15.5373C26.2171 15.4516 26.2342 15.3507 26.2778 15.2803C26.7332 14.5604 27.3176 14.0748 28.236 14.0957C29.2777 14.1224 30.3213 14.09 31.363 14.1091C31.6647 14.1148 31.7216 14.0062 31.7178 13.732C31.7045 12.4332 31.7159 11.1325 31.7102 9.83372C31.7083 9.24527 31.6172 9.15957 30.9892 9.15767C29.6951 9.15196 28.3992 9.15386 27.1051 9.15767C26.5871 9.15957 26.0881 9.18814 25.5663 9.32335C24.1774 9.68518 23.018 10.3041 22.0845 11.4505C21.3369 12.3685 20.9764 13.4197 20.7411 14.5071C20.5419 15.4326 20.5628 16.4115 20.5305 17.3694C20.5001 18.2549 20.5115 19.1442 20.5305 20.0317C20.5381 20.3383 20.4242 20.3897 20.1529 20.3859C18.7944 20.3726 17.4377 20.3821 16.0791 20.3783C15.9064 20.3783 15.7793 20.3859 15.7812 20.6144C15.7869 22.2312 15.7869 23.8462 15.7812 25.463C15.7812 25.6839 15.8856 25.7105 16.0696 25.7105C17.3637 25.7048 18.6596 25.7067 19.9537 25.7086C20.5172 25.7086 20.5229 25.7125 20.5229 26.2381C20.5267 28.3843 20.5248 30.5401 20.5248 32.6958Z" fill="white"/>
</svg>
