<svg width="50" height="50" viewBox="0 0 50 50" fill="none" xmlns="http://www.w3.org/2000/svg">
<rect width="50" height="50" rx="25" fill="white"/>
<path d="M31.375 9H18.625C12.7579 9 8 13.6179 8 19.3125V31.6875C8 37.3821 12.7579 42 18.625 42H31.375C37.2421 42 42 37.3821 42 31.6875V19.3125C42 13.6179 37.2421 9 31.375 9ZM38.8125 31.6875C38.8125 35.6681 35.4762 38.9062 31.375 38.9062H18.625C14.5238 38.9062 11.1875 35.6681 11.1875 31.6875V19.3125C11.1875 15.3319 14.5238 12.0938 18.625 12.0938H31.375C35.4762 12.0938 38.8125 15.3319 38.8125 19.3125V31.6875Z" fill="#5370A3"/>
<path d="M25 17.25C20.3059 17.25 16.5 20.9439 16.5 25.5C16.5 30.0561 20.3059 33.75 25 33.75C29.6941 33.75 33.5 30.0561 33.5 25.5C33.5 20.9439 29.6941 17.25 25 17.25ZM25 30.6562C22.0718 30.6562 19.6875 28.3421 19.6875 25.5C19.6875 22.6558 22.0718 20.3438 25 20.3438C27.9283 20.3438 30.3125 22.6558 30.3125 25.5C30.3125 28.3421 27.9283 30.6562 25 30.6562Z" fill="#5370A3"/>
<path d="M34.1375 17.7305C34.763 17.7305 35.2701 17.2383 35.2701 16.6312C35.2701 16.024 34.763 15.5319 34.1375 15.5319C33.512 15.5319 33.0049 16.024 33.0049 16.6312C33.0049 17.2383 33.512 17.7305 34.1375 17.7305Z" fill="#5370A3"/>
</svg>
