<svg width="178" height="55" viewBox="0 0 178 55" fill="none" xmlns="http://www.w3.org/2000/svg">
<path d="M10.6862 30.7626L0.283203 0.529297H9.26417L15.9277 22.2707L22.2679 0.529297H32.0213L38.4015 22.3509L45.025 0.529297H53.2736L43.2368 30.7626H33.2402L26.8198 9.59046L20.3995 30.7626H10.6862Z" fill="#5370A3"/>
<path d="M79.4576 23.7329C79.4576 25.6012 77.9955 31.2919 66.331 31.2919H64.8261C53.6908 31.2919 50.927 25.195 50.927 19.7903V19.221C50.927 14.1398 53.4449 7.71948 64.1338 7.71948H65.922C77.4636 7.71948 79.5351 14.1398 79.5351 20.4399V21.1722H59.0125C59.3386 23.773 61.0039 25.8872 65.8392 25.8872C70.4312 25.8872 71.0005 24.0991 71.2037 23.7329H79.4576ZM59.0981 16.9063H71.046C71.046 15.2384 70.2334 12.8835 65.1522 12.8835C61.0493 12.8835 59.5044 14.5488 59.0981 16.9063Z" fill="#5370A3"/>
<path d="M99.3601 31.2089C93.8752 31.2089 91.0714 28.7311 90.0958 27.7555C89.7723 28.7311 89.5692 29.7869 89.4462 30.7625H82.6196V0H90.5448V11.0124C91.5605 9.99668 94.2441 7.76212 99.4857 7.76212H100.015C108.63 7.76212 111.434 13.6131 111.434 19.0177V19.7073C111.434 24.7057 108.55 31.2089 99.9321 31.2089H99.3601ZM103.222 19.3839C103.222 16.9462 102.084 13.6532 97.1255 13.6532H96.7192C91.9641 13.6532 90.4619 16.7832 90.4619 19.3839V19.5069C90.4619 21.9847 91.9641 25.2349 96.7192 25.2349H97.1255C102.084 25.2349 103.222 21.8216 103.222 19.5069V19.3839Z" fill="#5370A3"/>
<path d="M113.451 30.7625V26.3736C113.451 22.0649 114.021 18.0849 125.399 14.5086L130.235 13.0465C134.257 11.8678 135.313 11.0552 135.313 9.55301C135.313 7.92788 134.257 6.62618 129.259 6.62618C123.325 6.62618 122.839 9.95929 122.716 11.4214H113.978V11.1354C113.978 7.02979 116.009 0.163086 128.201 0.163086H130.029C140.838 0.163086 144.171 4.34886 144.171 9.51025V9.83634C144.171 15.0779 141.244 17.2724 132.833 19.2236C131.208 19.5898 129.419 19.9961 127.997 20.3623C122.023 21.8671 120.968 22.8828 120.968 23.5323H144.863V30.7652H113.451V30.7625Z" fill="#5370A3"/>
<path d="M165.095 31.2089C159.61 31.2089 156.806 28.7311 155.83 27.7555C155.507 28.7311 155.304 29.7869 155.181 30.7625H148.354V0H156.279V11.0124C157.295 9.99668 159.979 7.76212 165.22 7.76212H165.75C174.364 7.76212 177.168 13.6131 177.168 19.0177V19.7073C177.168 24.7057 174.284 31.2089 165.667 31.2089H165.095ZM168.954 19.3839C168.954 16.9462 167.816 13.6532 162.857 13.6532H162.451C157.696 13.6532 156.194 16.7832 156.194 19.3839V19.5069C156.194 21.9847 157.696 25.2349 162.451 25.2349H162.857C167.816 25.2349 168.954 21.8216 168.954 19.5069V19.3839Z" fill="#5370A3"/>
<path d="M7.74341 53.0707C5.99266 53.0707 4.57335 52.6404 3.48547 51.7824C2.40027 50.9244 1.85767 49.6654 1.85767 48.0082C1.85767 47.2972 1.96993 46.6531 2.19178 46.0811C2.41364 45.5091 2.70498 45.0413 3.0685 44.6805C3.42934 44.3196 3.85968 44.0149 4.35684 43.769C4.854 43.5231 5.36453 43.352 5.88842 43.2531C6.41498 43.1542 6.96293 43.1034 7.53493 43.1034C8.63349 43.1034 9.62782 43.2986 10.5206 43.6915C11.4133 44.0817 12.0896 44.7045 12.544 45.5572L14.4177 45.1536C13.1106 42.7586 10.7905 41.5638 7.46276 41.5638C5.15069 41.5638 3.32777 42.1546 1.99666 43.3333C0.665554 44.5121 0 46.0757 0 48.0269C0 49.4516 0.334114 50.6704 1.00769 51.6781C1.67859 52.6885 2.56866 53.4289 3.67792 53.902C4.78718 54.3751 6.05948 54.6103 7.49751 54.6103C11.0952 54.6103 13.4875 53.3781 14.6796 50.9137L12.8219 50.5288C11.9238 52.2261 10.2292 53.0707 7.74341 53.0707Z" fill="#5370A3"/>
<path d="M25.2321 46.5381C24.6815 46.1987 24.0908 45.9474 23.4547 45.7844C22.8185 45.6213 22.1449 45.5385 21.4313 45.5385C20.8112 45.5385 20.1964 45.6213 19.5843 45.7844C18.9722 45.9474 18.3788 46.2013 17.8068 46.5461C17.2348 46.8909 16.7697 47.3774 16.4142 48.0082C16.0587 48.639 15.8796 49.3687 15.8796 50.1973C15.8796 51.5284 16.4009 52.5896 17.446 53.3754C18.4911 54.1639 19.8382 54.5568 21.4847 54.5568C23.2007 54.5568 24.5559 54.1265 25.5475 53.2685C26.5392 52.4105 27.0364 51.3387 27.0364 50.0557C27.0364 49.2618 26.8733 48.5615 26.5445 47.9548C26.2184 47.3507 25.7828 46.8776 25.2321 46.5381ZM24.2004 52.3784C23.4172 52.9103 22.5405 53.175 21.5729 53.175C20.3701 53.175 19.3999 52.8863 18.6648 52.3089C17.9298 51.7316 17.5609 50.9912 17.5609 50.0931C17.5609 49.1014 17.9431 48.321 18.7076 47.7543C19.472 47.1876 20.3675 46.9043 21.3965 46.9043C22.0273 46.9043 22.6287 46.9952 23.2007 47.1769C23.7727 47.3587 24.2779 47.6928 24.7163 48.1846C25.1546 48.6764 25.3738 49.2885 25.3738 50.0236C25.3738 51.0634 24.9809 51.8492 24.2004 52.3784Z" fill="#5370A3"/>
<path d="M37.0785 46.081C36.3248 45.6961 35.4294 45.5037 34.3896 45.5037C33.4434 45.5037 32.6041 45.656 31.8664 45.9581C31.4681 46.1211 31.0378 46.3964 30.57 46.7813V45.7469H28.9048V54.2949H30.57V50.232C30.57 49.5905 30.6395 49.088 30.7812 48.7245C31.0378 48.083 31.4735 47.6206 32.0855 47.3399C32.6976 47.0593 33.3659 46.9203 34.0902 46.9203C35.6325 46.9203 36.6135 47.4041 37.0331 48.3744C37.1855 48.7138 37.2603 49.1789 37.2603 49.775V54.2949H38.9068V49.6707C38.9068 48.7593 38.8133 48.083 38.6262 47.6393C38.3482 46.9871 37.8323 46.4686 37.0785 46.081Z" fill="#5370A3"/>
<path d="M49.4943 46.081C48.7405 45.6961 47.8451 45.5037 46.8054 45.5037C45.8592 45.5037 45.0199 45.656 44.2821 45.9581C43.8839 46.1211 43.4535 46.3964 42.9858 46.7813V45.7469H41.3206V54.2949H42.9858V50.232C42.9858 49.5905 43.0553 49.088 43.1969 48.7245C43.4535 48.083 43.8892 47.6206 44.5013 47.3399C45.1134 47.0593 45.7816 46.9203 46.506 46.9203C48.0483 46.9203 49.0292 47.4041 49.4489 48.3744C49.6012 48.7138 49.6761 49.1789 49.6761 49.775V54.2949H51.3226V49.6707C51.3226 48.7593 51.229 48.083 51.0419 47.6393C50.7639 46.9871 50.2481 46.4686 49.4943 46.081Z" fill="#5370A3"/>
<path d="M62.4633 47.1421C62.073 46.6583 61.5171 46.2574 60.7981 45.942C60.0791 45.6266 59.2665 45.4689 58.355 45.4689C57.7723 45.4689 57.1923 45.5491 56.6203 45.7041C56.0483 45.8618 55.4923 46.1077 54.9551 46.4391C54.4178 46.7706 53.9822 47.2437 53.6507 47.8585C53.3193 48.4705 53.1509 49.1869 53.1509 50.0048C53.1509 51.4188 53.6587 52.5307 54.6744 53.3406C55.6901 54.1531 56.9277 54.5568 58.3871 54.5568C58.8656 54.5568 59.3333 54.5167 59.7877 54.4338C60.2421 54.3509 60.7099 54.2146 61.1883 54.0222C61.6668 53.8297 62.1051 53.5437 62.5007 53.1642C62.8963 52.7846 63.2197 52.3329 63.463 51.8063L61.8699 51.368C61.5999 51.9747 61.1669 52.4371 60.5655 52.7525C59.9641 53.0679 59.3119 53.2257 58.6116 53.2257C57.4676 53.2257 56.5642 52.9263 55.904 52.3222C55.2438 51.7208 54.8963 51.0178 54.8615 50.2106H63.6367V49.9647C63.6367 49.5317 63.5378 49.0746 63.34 48.5908C63.1502 48.1124 62.8562 47.6259 62.4633 47.1421ZM54.923 48.9731C55.1903 48.238 55.6474 47.6767 56.2889 47.2918C56.9304 46.9069 57.6547 46.7144 58.4619 46.7144C60.1432 46.7144 61.2471 47.4682 61.7737 48.9731H54.923Z" fill="#5370A3"/>
<path d="M72.8179 52.8087C72.1924 53.1134 71.4654 53.2631 70.6368 53.2631C70.006 53.2631 69.4073 53.1669 68.8406 52.9744C68.274 52.782 67.7741 52.4372 67.3438 51.94C66.9108 51.4429 66.6943 50.8334 66.6943 50.1091C66.6943 49.0586 67.0765 48.2461 67.8409 47.6741C68.6054 47.1021 69.5302 46.8161 70.6181 46.8161C72.2887 46.8161 73.4434 47.3934 74.0875 48.5508L75.6806 48.0964C75.2957 47.3132 74.6729 46.6851 73.8149 46.212C72.9569 45.7389 71.8904 45.5037 70.6181 45.5037C68.9609 45.5037 67.5977 45.8993 66.5285 46.6851C65.4594 47.4736 64.9248 48.5668 64.9248 49.9701C64.9248 51.4776 65.4327 52.6243 66.4484 53.4128C67.4641 54.2013 68.8353 54.5942 70.5646 54.5942C71.8503 54.5942 72.9328 54.367 73.8149 53.91C74.697 53.4556 75.3465 52.8248 75.7688 52.0175L74.1757 51.5979C73.8951 52.1031 73.4407 52.504 72.8179 52.8087Z" fill="#5370A3"/>
<path d="M79.3292 42.7881H77.6827V45.7497H76.1938V46.8883H77.6479V51.9321C77.6479 52.4934 77.68 52.9077 77.7441 53.175C77.8083 53.445 77.9393 53.6775 78.137 53.8753C78.5113 54.2361 79.1367 54.4179 80.0108 54.4179C80.4892 54.4179 81.0452 54.3778 81.676 54.295V52.8249C80.9409 52.9077 80.5373 52.9478 80.4678 52.9478C79.9787 52.9478 79.6553 52.8436 79.5056 52.6324C79.3532 52.4212 79.2784 52.031 79.2784 51.459V46.8883H81.7134V45.7497H79.3318V42.7881H79.3292Z" fill="#5370A3"/>
<path d="M99.8945 47.6768C99.9052 47.6768 99.9694 47.6501 100.087 47.5993C100.205 47.5458 100.317 47.4924 100.429 47.4336C100.539 47.3748 100.672 47.2786 100.822 47.1449C100.974 47.0113 101.105 46.8616 101.215 46.6985C101.327 46.5355 101.421 46.3163 101.504 46.041C101.586 45.7657 101.627 45.4663 101.627 45.1376C101.627 42.9992 100.143 41.9327 97.1762 41.9327H89.0479V54.3003H96.9837C97.545 54.3003 97.9887 54.2896 98.3148 54.2655C98.6409 54.2415 99.0472 54.188 99.531 54.0998C100.015 54.0116 100.44 53.8486 100.801 53.608C101.161 53.3674 101.466 53.0627 101.712 52.6885C102.062 52.1513 102.239 51.5392 102.239 50.8496C102.239 49.9969 102.019 49.3073 101.581 48.7834C101.145 48.2542 100.584 47.8853 99.8945 47.6768ZM90.82 43.3494H96.9677C97.9005 43.3494 98.5741 43.4777 98.9831 43.7343C99.531 44.0844 99.8063 44.5923 99.8063 45.2578C99.8063 45.6908 99.694 46.0624 99.4749 46.3778C99.3118 46.6103 99.0953 46.7894 98.8254 46.9124C98.5554 47.0353 98.3202 47.1048 98.117 47.1235C97.9112 47.1422 97.6359 47.1503 97.2858 47.1503H90.8227V43.3494H90.82ZM99.9988 51.9855C99.5444 52.5709 98.7131 52.8623 97.5103 52.8623H90.82V48.5696H97.5103C98.117 48.5696 98.6249 48.6257 99.0338 48.7353C99.4428 48.8476 99.7823 49.0935 100.05 49.481C100.282 49.8205 100.4 50.2348 100.4 50.7239C100.402 51.2371 100.269 51.6595 99.9988 51.9855Z" fill="#5370A3"/>
<path d="M112.62 50.2695C112.62 50.8763 112.532 51.3333 112.358 51.6354C112.126 52.0203 111.719 52.3651 111.142 52.6698C110.565 52.9745 109.867 53.1242 109.049 53.1242C108.886 53.1242 108.707 53.1135 108.515 53.0894C108.322 53.0654 108.055 53.0173 107.718 52.9398C107.379 52.8649 107.066 52.7233 106.78 52.5201C106.494 52.317 106.285 52.055 106.157 51.7396C106.005 51.3654 105.93 50.8068 105.93 50.0584V45.7496H104.283V50.2348C104.283 51.3333 104.401 52.1218 104.634 52.6003C104.821 52.9986 105.099 53.3353 105.465 53.616C105.834 53.8967 106.232 54.1025 106.665 54.2388C107.098 54.3724 107.494 54.466 107.857 54.5194C108.218 54.5729 108.563 54.597 108.892 54.597C110.025 54.597 110.982 54.3564 111.765 53.8779C112.08 53.6908 112.377 53.469 112.658 53.2124V54.2976H114.288V45.7496H112.623V50.2695H112.62Z" fill="#5370A3"/>
<path d="M125.279 49.8125C124.811 49.5078 123.983 49.31 122.791 49.2164C122.558 49.1924 122.216 49.163 121.767 49.1282C121.318 49.0935 120.979 49.0667 120.751 49.0507C120.524 49.032 120.257 49.0053 119.955 48.9625C119.65 48.9224 119.41 48.877 119.228 48.8315C119.046 48.7861 118.899 48.7273 118.781 48.6578C118.501 48.5054 118.362 48.2836 118.362 47.9922C118.362 47.7356 118.485 47.5138 118.731 47.3267C119.198 46.9872 120.003 46.8188 121.147 46.8188C122.606 46.8188 123.82 47.1503 124.79 47.8185L126.244 47.014C126.012 46.7814 125.659 46.5355 125.194 46.2789C124.109 45.7069 122.799 45.4209 121.27 45.4209C119.81 45.4209 118.682 45.624 117.889 46.033C116.977 46.5008 116.523 47.2011 116.523 48.1339C116.523 48.8342 116.79 49.3848 117.327 49.7804C117.795 50.1199 118.525 50.3471 119.516 50.4647C119.96 50.5128 120.562 50.5609 121.321 50.6144C122.08 50.6678 122.654 50.7213 123.047 50.7801C123.438 50.8389 123.745 50.9271 123.967 51.042C124.328 51.2291 124.509 51.4911 124.509 51.8305C124.509 52.2849 124.226 52.6297 123.659 52.8649C123.093 53.0975 122.36 53.2151 121.46 53.2151C120.118 53.2151 118.971 52.9692 118.028 52.48C117.747 52.3277 117.456 52.1299 117.151 51.884L115.716 52.8302C117.057 54.0223 119.009 54.6157 121.567 54.6157C123.879 54.6157 125.357 54.0437 125.998 52.8997C126.185 52.5602 126.279 52.17 126.279 51.7263C126.279 50.895 125.945 50.2589 125.279 49.8125Z" fill="#5370A3"/>
<path d="M129.807 45.7496H128.142V54.2976H129.807V45.7496Z" fill="#5370A3"/>
<path d="M129.77 42.6302H128.123V44.3115H129.77V42.6302Z" fill="#5370A3"/>
<path d="M140.394 46.081C139.641 45.6961 138.745 45.5037 137.706 45.5037C136.759 45.5037 135.917 45.656 135.182 45.9581C134.784 46.1211 134.354 46.3964 133.886 46.7813V45.7469H132.221V54.2949H133.886V50.232C133.886 49.5905 133.955 49.088 134.097 48.7245C134.354 48.083 134.789 47.6206 135.401 47.3399C136.014 47.0593 136.684 46.9203 137.406 46.9203C138.948 46.9203 139.929 47.4041 140.349 48.3744C140.501 48.7138 140.576 49.1789 140.576 49.775V54.2949H142.223V49.6707C142.223 48.7593 142.129 48.083 141.942 47.6393C141.664 46.9871 141.148 46.4686 140.394 46.081Z" fill="#5370A3"/>
<path d="M153.366 47.1421C152.973 46.6583 152.42 46.2574 151.701 45.942C150.982 45.6266 150.169 45.4689 149.258 45.4689C148.675 45.4689 148.095 45.5491 147.523 45.7041C146.951 45.8618 146.395 46.1077 145.858 46.4391C145.321 46.7706 144.885 47.2437 144.554 47.8585C144.222 48.4705 144.054 49.1869 144.054 50.0048C144.054 51.4188 144.562 52.5307 145.577 53.3406C146.593 54.1531 147.831 54.5568 149.29 54.5568C149.768 54.5568 150.236 54.5167 150.691 54.4338C151.145 54.3509 151.613 54.2146 152.091 54.0222C152.57 53.8297 153.008 53.5437 153.406 53.1642C153.802 52.7846 154.125 52.3329 154.368 51.8063L152.775 51.368C152.505 51.9747 152.072 52.4371 151.471 52.7525C150.87 53.0679 150.217 53.2257 149.517 53.2257C148.373 53.2257 147.47 52.9263 146.812 52.3222C146.152 51.7208 145.804 51.0178 145.77 50.2106H154.545V49.9647C154.545 49.5317 154.446 49.0746 154.248 48.5908C154.05 48.1124 153.756 47.6259 153.366 47.1421ZM145.826 48.9731C146.093 48.238 146.55 47.6767 147.192 47.2918C147.833 46.9069 148.558 46.7144 149.365 46.7144C151.046 46.7144 152.15 47.4682 152.677 48.9731H145.826Z" fill="#5370A3"/>
<path d="M164.868 49.8125C164.4 49.5078 163.571 49.31 162.379 49.2164C162.147 49.1924 161.804 49.163 161.355 49.1282C160.906 49.0935 160.567 49.0667 160.34 49.0507C160.112 49.032 159.845 49.0053 159.543 48.9625C159.238 48.9224 158.998 48.877 158.816 48.8315C158.634 48.7861 158.485 48.7273 158.37 48.6578C158.089 48.5054 157.95 48.2836 157.95 47.9922C157.95 47.7356 158.073 47.5138 158.319 47.3267C158.787 46.9872 159.591 46.8188 160.735 46.8188C162.195 46.8188 163.408 47.1503 164.378 47.8185L165.833 47.014C165.6 46.7814 165.25 46.5355 164.782 46.2789C163.697 45.7069 162.387 45.4209 160.858 45.4209C159.399 45.4209 158.271 45.624 157.477 46.033C156.566 46.5008 156.111 47.2011 156.111 48.1339C156.111 48.8342 156.378 49.3848 156.916 49.7804C157.383 50.1199 158.113 50.3471 159.105 50.4647C159.549 50.5128 160.15 50.5609 160.909 50.6144C161.668 50.6678 162.243 50.7213 162.633 50.7801C163.023 50.8389 163.331 50.9271 163.553 51.042C163.913 51.2291 164.095 51.4911 164.095 51.8305C164.095 52.2849 163.812 52.6297 163.245 52.8649C162.678 53.0975 161.946 53.2151 161.045 53.2151C159.704 53.2151 158.557 52.9692 157.613 52.48C157.333 52.3277 157.041 52.1299 156.737 51.884L155.301 52.8302C156.643 54.0223 158.594 54.6157 161.152 54.6157C163.464 54.6157 164.942 54.0437 165.584 52.8997C165.771 52.5602 165.865 52.17 165.865 51.7263C165.867 50.895 165.533 50.2589 164.868 49.8125Z" fill="#5370A3"/>
<path d="M176.446 49.8125C175.979 49.5078 175.15 49.31 173.958 49.2164C173.725 49.1924 173.383 49.163 172.934 49.1282C172.485 49.0935 172.146 49.0667 171.919 49.0507C171.691 49.032 171.424 49.0053 171.122 48.9625C170.817 48.9224 170.577 48.877 170.395 48.8315C170.213 48.7861 170.064 48.7273 169.949 48.6578C169.668 48.5054 169.529 48.2836 169.529 47.9922C169.529 47.7356 169.652 47.5138 169.898 47.3267C170.366 46.9872 171.17 46.8188 172.314 46.8188C173.774 46.8188 174.987 47.1503 175.957 47.8185L177.411 47.014C177.179 46.7814 176.829 46.5355 176.361 46.2789C175.276 45.7069 173.966 45.4209 172.437 45.4209C170.978 45.4209 169.85 45.624 169.056 46.033C168.144 46.5008 167.69 47.2011 167.69 48.1339C167.69 48.8342 167.957 49.3848 168.495 49.7804C168.962 50.1199 169.692 50.3471 170.684 50.4647C171.127 50.5128 171.729 50.5609 172.488 50.6144C173.247 50.6678 173.822 50.7213 174.212 50.7801C174.602 50.8389 174.91 50.9271 175.131 51.042C175.492 51.2291 175.674 51.4911 175.674 51.8305C175.674 52.2849 175.391 52.6297 174.824 52.8649C174.257 53.0975 173.525 53.2151 172.627 53.2151C171.285 53.2151 170.138 52.9692 169.195 52.48C168.914 52.3277 168.623 52.1299 168.318 51.884L166.883 52.8302C168.225 54.0223 170.176 54.6157 172.734 54.6157C175.046 54.6157 176.524 54.0437 177.165 52.8997C177.353 52.5602 177.446 52.17 177.446 51.7263C177.446 50.895 177.112 50.2589 176.446 49.8125Z" fill="#5370A3"/>
</svg>
