<svg width="49" height="48" viewBox="0 0 49 48" fill="none" xmlns="http://www.w3.org/2000/svg">
<path d="M48.9543 23.8508C48.9543 24.285 48.9232 24.5744 48.9601 24.8563C49.0961 25.8903 48.8513 26.9072 48.7231 27.9127C48.5541 29.2228 48.2142 30.5272 47.7208 31.7745C47.3867 32.6219 47.0954 33.4903 46.6797 34.2996C45.9882 35.6517 45.2093 36.9542 44.306 38.192C43.1852 39.7287 41.8547 41.0713 40.4289 42.3052C39.1527 43.4078 37.6998 44.3085 36.2061 45.1388C34.6269 46.0148 32.9331 46.5975 31.2296 47.1383C30.4934 47.3725 29.7125 47.5801 28.8986 47.6277C28.415 47.6563 27.8866 47.6867 27.436 47.8219C26.929 47.9762 26.4473 47.9552 25.952 47.9724C25.4353 47.9895 24.9167 47.9762 24.4 47.9762C23.8833 47.9762 23.3588 47.9286 22.848 47.9876C22.2011 48.0619 21.6184 47.7781 20.9871 47.7705C20.4141 47.7648 19.8547 47.5039 19.2991 47.4392C18.4367 47.3383 17.6287 47.1078 16.8303 46.826C15.1656 46.2376 13.5534 45.5444 12.0228 44.6437C11.1351 44.1219 10.3212 43.5011 9.42381 43.0003C9.36943 42.9698 9.33252 42.9108 9.2859 42.867C8.33022 41.9929 7.29297 41.1874 6.43635 40.2277C5.36413 39.028 4.33658 37.7864 3.51493 36.3848C2.73408 35.0537 2.12998 33.6541 1.51423 32.2506C1.2384 31.6222 1.02279 30.9766 0.846032 30.3387C0.591573 29.4247 0.372078 28.4782 0.261359 27.5375C0.144813 26.5587 -0.0824511 25.578 0.0321524 24.5763C0.0710011 24.2317 0.0748859 23.8756 0.0321524 23.5309C-0.0979906 22.495 0.205029 21.4933 0.265244 20.4726C0.302151 19.8385 0.432294 19.151 0.688695 18.5645C0.863514 18.1608 0.628479 17.6828 1.0092 17.3629C0.987829 16.586 1.41516 15.9366 1.70264 15.2663C2.3048 13.8552 2.97494 12.4784 3.84903 11.1854C4.51723 10.1971 5.2301 9.264 5.98765 8.34614C6.46937 7.76343 6.94527 7.17881 7.52217 6.69893C8.39627 5.9715 9.29367 5.26501 10.1969 4.56804C11.4556 3.59495 12.8561 2.90941 14.2469 2.18578C14.8044 1.89442 18.124 0.687108 18.6232 0.607128C19.1437 0.523339 19.6701 0.483349 20.1907 0.409082C20.5229 0.361475 20.8492 0.283399 21.1775 0.222462C21.4766 0.167238 21.801 0.334815 22.0846 0.0472683C22.1778 -0.0479459 22.4556 0.0301297 22.6498 0.0301297C23.9435 0.0301297 25.243 -0.0460416 26.5289 0.0529811C27.5875 0.134865 28.6422 0.350049 29.695 0.557616C30.7129 0.757566 31.6919 1.03369 32.6631 1.36503C33.2283 1.55737 33.7916 1.75541 34.3433 1.98202C35.1455 2.30956 35.9205 2.70374 36.6703 3.1303C37.4318 3.56258 38.1699 4.04055 38.8886 4.53947C40.2405 5.47638 41.4312 6.5942 42.5773 7.75962C43.2085 8.40136 43.733 9.12499 44.2944 9.82005C45.2598 11.0178 45.9785 12.3585 46.6816 13.7048C47.241 14.7769 47.5907 15.9347 47.9889 17.0735C48.2783 17.8961 48.4162 18.7454 48.6027 19.589C48.7115 20.0803 48.6376 20.585 48.7814 21.0325C49.0999 22.017 48.8591 23.0129 48.9543 23.8508ZM26.8241 20.1755C26.8241 19.1606 26.8066 18.1456 26.8319 17.1325C26.8455 16.5441 26.5833 16.2146 26.0374 16.0033C25.3343 15.731 24.5864 15.7709 23.8639 15.6472C23.3627 15.5615 22.8305 15.6053 22.3157 15.6376C21.7913 15.67 21.2668 15.8185 20.7463 15.8033C20.2878 15.7881 19.9013 15.9747 19.4953 16.0851C19.2176 16.1613 18.9903 16.4203 18.7514 16.6107C18.7281 16.6279 18.7611 16.765 18.8058 16.8012C18.8971 16.8716 19.0097 16.9364 19.1243 16.9611C19.8955 17.1268 20.3617 17.5991 20.5442 18.3322C20.6608 18.7968 20.7734 19.2729 20.7948 19.749C20.8356 20.6021 20.8725 21.4667 20.7851 22.3141C20.7152 22.9806 20.6977 23.6832 20.2509 24.2812C19.9421 24.6963 19.5691 24.881 19.1981 24.5649C18.7242 24.1593 18.2755 23.7061 17.9064 23.2091C17.3528 22.4645 16.8575 21.6761 16.37 20.8878C15.7484 19.8804 15.1928 18.8426 14.7752 17.7324C14.6198 17.3172 14.4974 16.7993 13.973 16.6583C13.5651 16.5498 13.1824 16.3651 12.724 16.3822C11.2944 16.4355 9.87834 16.6964 8.439 16.5936C7.90872 16.5555 7.6698 16.8602 7.8116 17.3591C7.92231 17.7514 8.1049 18.1284 8.2972 18.4922C9.21015 20.2136 10.0318 21.9789 11.0108 23.6699C11.5644 24.6259 12.1529 25.5532 12.757 26.4749C13.3009 27.3052 13.8584 28.1336 14.478 28.9105C14.9034 29.4437 15.4259 29.8988 15.8552 30.4415C16.1951 30.87 16.6885 31.1842 17.1314 31.527C17.4422 31.7669 17.7666 32.0031 18.1162 32.1782C18.8873 32.5667 19.6527 32.999 20.4704 33.258C21.5737 33.6065 22.7003 33.9302 23.8891 33.8997C24.4058 33.8864 24.9244 33.8788 25.4411 33.9035C25.9112 33.9245 26.2666 33.7436 26.6143 33.4503C26.9232 33.1894 26.7853 32.8733 26.8222 32.5781C26.8902 32.0335 26.931 31.4851 27.032 30.9481C27.0669 30.7577 27.2942 30.6091 27.3544 30.4168C27.5487 29.7846 28.0071 29.636 28.5995 29.716C28.7432 29.7351 28.9064 29.7827 29.0152 29.8703C29.4794 30.2378 30.0272 30.5577 30.3574 31.0243C30.8955 31.7822 31.5753 32.3896 32.2474 32.999C32.8534 33.5474 33.578 33.9302 34.4793 33.9073C35.9341 33.8712 37.389 33.8902 38.8458 33.9016C39.2926 33.9054 39.6791 33.7436 40.0657 33.5684C40.5571 33.3456 40.6698 32.9952 40.4794 32.5286C40.1181 31.6489 39.5645 30.8948 38.8944 30.2264C37.8299 29.1619 36.7422 28.1221 35.6758 27.0614C35.1086 26.4978 35.0076 25.9284 35.3747 25.2562C35.5884 24.8639 35.8234 24.4659 36.1226 24.1365C37.0743 23.091 37.8902 21.9427 38.7079 20.804C39.415 19.8175 40.1337 18.8235 40.4581 17.6162C40.5222 17.3801 40.7281 17.1953 40.5047 16.963C40.3124 16.765 40.1473 16.5688 39.7918 16.5726C37.7542 16.5955 35.7166 16.5879 33.679 16.5803C33.3138 16.5784 33.1467 16.7002 33.0088 17.062C32.7563 17.7171 32.3368 18.3113 32.0784 18.9663C31.4491 20.5545 30.4273 21.9199 29.5027 23.3348C29.1628 23.8546 28.6753 24.3535 28.0401 24.6449C27.8381 24.7382 27.7429 24.803 27.5603 24.6373C27.03 24.1555 26.8319 23.7575 26.828 23.0301C26.8222 22.0779 26.8241 21.1258 26.8241 20.1755Z" fill="white"/>
</svg>
